<?xml version="1.0" encoding="iso-8859-1"?>
<!-- Generator: Adobe Illustrator 19.0.0, SVG Export Plug-In . SVG Version: 6.00 Build 0)  -->
<svg version="1.1" id="Layer_1" xmlns="http://www.w3.org/2000/svg" xmlns:xlink="http://www.w3.org/1999/xlink" x="0px" y="0px"
	 viewBox="0 0 512 512" style="enable-background:new 0 0 512 512;" xml:space="preserve">
<rect x="36.582" y="324.573" style="fill:#C83741;" width="438.843" height="82.283"/>
<rect x="36.582" y="379.428" style="fill:#FFB450;" width="438.843" height="27.428"/>
<g>
	<path style="fill:#50B4AF;" d="M27.436,287.999v63.998h9.143l11.82-11.82c3.57-3.57,9.36-3.57,12.93,0l11.82,11.82l17.145-13.716
		c3.339-2.671,8.083-2.671,11.423,0l17.145,13.716l17.145-13.716c3.339-2.671,8.083-2.671,11.423,0l17.145,13.716l22.356-14.905
		c3.071-2.047,7.072-2.047,10.143,0l22.356,14.905l22.821-15.214c3.003-2.002,6.532-3.071,10.143-3.071h7.212
		c3.61,0,7.139,1.069,10.143,3.071l22.821,15.214l22.356-14.905c3.071-2.047,7.072-2.047,10.143,0l22.356,14.905l17.145-13.716
		c3.339-2.671,8.083-2.671,11.422,0l17.145,13.716l17.145-13.716c3.339-2.671,8.083-2.671,11.422,0l17.145,13.716l11.82-11.82
		c3.57-3.57,9.36-3.57,12.93,0l11.82,11.82h9.143v-63.998H27.436L27.436,287.999z"/>
	<rect x="82.295" y="205.719" style="fill:#50B4AF;" width="347.418" height="54.855"/>
</g>
<g>
	<rect x="82.295" y="205.719" style="fill:#37A0A0;" width="347.418" height="27.428"/>
	<rect x="27.44" y="288.002" style="fill:#37A0A0;" width="457.129" height="27.428"/>
</g>
<g>
	<path style="fill:#FFB450;" d="M155.432,96.005c-5.054,0-9.143,4.089-9.143,9.143v27.428h18.285v-27.428
		C164.575,100.094,160.486,96.005,155.432,96.005z"/>
	<path style="fill:#FFB450;" d="M356.569,96.005c-5.054,0-9.143,4.089-9.143,9.143v27.428h18.285v-27.428
		C365.711,100.094,361.622,96.005,356.569,96.005z"/>
</g>
<g>
	<path style="fill:#FF4B4B;" d="M475.422,333.712c-5.054,0-9.143,4.089-9.143,9.143v63.998h18.285v-63.998
		C484.565,337.801,480.476,333.712,475.422,333.712z"/>
	<path style="fill:#FF4B4B;" d="M36.579,333.712c-5.054,0-9.143,4.089-9.143,9.143v63.998h18.285v-63.998
		C45.721,337.801,41.632,333.712,36.579,333.712z"/>
</g>
<path style="fill:#FFCF65;" d="M429.709,251.429H82.292c0,0-37.402,37.402-78.376,24.244c-3.04-0.976-5.323,2.831-2.896,4.905
	c8.961,7.658,23.852,16.557,44.674,16.565c115.692,0,304.92,0,420.612,0c20.822-0.008,35.713-8.907,44.674-16.565
	c2.427-2.074,0.145-5.881-2.896-4.905C467.113,288.832,429.709,251.429,429.709,251.429z"/>
<path style="fill:#5091D7;" d="M237.715,214.858v36.57c0,5.049,4.094,9.143,9.143,9.143h18.285c5.049,0,9.143-4.094,9.143-9.143
	v-36.57H237.715z"/>
<path style="fill:#FFCF65;" d="M368.088,128.534c23.283,46.156,80.735,61.665,105.176,66.285c3.687,0.697,4.254,5.716,0.833,7.26
	c-11.926,5.383-33.592,12.774-62.648,12.778c-85.489,0-225.409,0-310.899,0c-29.056-0.005-50.722-7.395-62.648-12.778
	c-3.42-1.544-2.854-6.563,0.833-7.26c24.442-4.619,81.893-20.129,105.176-66.285c1.545-3.062,4.561-5.102,7.991-5.102h208.196
	C363.529,123.433,366.544,125.473,368.088,128.534z"/>
<g>
	<path style="fill:#FF4B4B;" d="M219.43,333.712c-5.054,0-9.143,4.089-9.143,9.143v63.998h18.285v-63.998
		C228.573,337.801,224.484,333.712,219.43,333.712z"/>
	<path style="fill:#FF4B4B;" d="M164.575,333.712c-5.054,0-9.143,4.089-9.143,9.143v63.998h18.285v-63.998
		C173.717,337.801,169.628,333.712,164.575,333.712z"/>
	<path style="fill:#FF4B4B;" d="M118.862,333.712c-5.054,0-9.143,4.089-9.143,9.143v63.998h18.285v-63.998
		C128.005,337.801,123.915,333.712,118.862,333.712z"/>
	<path style="fill:#FF4B4B;" d="M73.149,333.712c-5.054,0-9.143,4.089-9.143,9.143v63.998h18.285v-63.998
		C82.292,337.801,78.203,333.712,73.149,333.712z"/>
	<path style="fill:#FF4B4B;" d="M347.426,333.712c-5.054,0-9.143,4.089-9.143,9.143v63.998h18.285v-63.998
		C356.569,337.801,352.48,333.712,347.426,333.712z"/>
	<path style="fill:#FF4B4B;" d="M393.139,333.712c-5.054,0-9.143,4.089-9.143,9.143v63.998h18.285v-63.998
		C402.282,337.801,398.193,333.712,393.139,333.712z"/>
	<path style="fill:#FF4B4B;" d="M438.852,333.712c-5.054,0-9.143,4.089-9.143,9.143v63.998h18.285v-63.998
		C447.994,337.801,443.905,333.712,438.852,333.712z"/>
	<path style="fill:#FF4B4B;" d="M292.571,333.712c-5.054,0-9.143,4.089-9.143,9.143v63.998h18.285v-63.998
		C301.713,337.801,297.624,333.712,292.571,333.712z"/>
</g>
<path style="fill:#504B5A;" d="M256.001,361.14c-5.054,0-9.143,4.089-9.143,9.143v36.57h18.285v-36.57
	C265.143,365.229,261.054,361.14,256.001,361.14z"/>
<path style="fill:#CAC9CD;" d="M502.85,415.995H9.151c-5.054,0-9.143-4.089-9.143-9.143c0-5.054,4.089-9.143,9.143-9.143H502.85
	c5.054,0,9.143,4.089,9.143,9.143C511.992,411.906,507.903,415.995,502.85,415.995z"/>
<g>
</g>
<g>
</g>
<g>
</g>
<g>
</g>
<g>
</g>
<g>
</g>
<g>
</g>
<g>
</g>
<g>
</g>
<g>
</g>
<g>
</g>
<g>
</g>
<g>
</g>
<g>
</g>
<g>
</g>
</svg>
