<?xml version="1.0" encoding="iso-8859-1"?>
<!-- Generator: Adobe Illustrator 19.0.0, SVG Export Plug-In . SVG Version: 6.00 Build 0)  -->
<svg version="1.1" id="Layer_1" xmlns="http://www.w3.org/2000/svg" xmlns:xlink="http://www.w3.org/1999/xlink" x="0px" y="0px"
	 viewBox="0 0 512 512" style="enable-background:new 0 0 512 512;" xml:space="preserve">
<polygon style="fill:#FF4851;" points="72.348,0 72.348,512 256,512 278.261,256 256,22.261 "/>
<path style="fill:#FF1A26;" d="M72.348,0C104.262,84.294,174.487,142.84,256,142.84V512h183.652V0H72.348z"/>
<polygon style="fill:#FFB833;" points="200.348,210.551 200.348,243.942 256,243.942 267.13,227.247 256,210.551 "/>
<rect x="256" y="210.554" style="fill:#FF832F;" width="44.522" height="33.391"/>
<polygon style="fill:#FFB833;" points="166.957,277.334 166.957,310.725 194.955,310.725 152.183,391.993 181.73,407.544 
	232.688,310.725 256,310.725 267.13,294.029 256,277.334 "/>
<path style="fill:#FF832F;" d="M322.783,394.203v16.299c-18.854-2.709-33.391-18.968-33.391-38.56v-61.217h44.522v-33.391H256
	v94.609c0,39.893,32.455,72.348,72.348,72.348h27.826v-50.087H322.783z"/>
<path style="fill:#C0141C;" d="M256,0v142.84c81.513,0,151.738-58.546,183.652-142.84H256z"/>
<g>
</g>
<g>
</g>
<g>
</g>
<g>
</g>
<g>
</g>
<g>
</g>
<g>
</g>
<g>
</g>
<g>
</g>
<g>
</g>
<g>
</g>
<g>
</g>
<g>
</g>
<g>
</g>
<g>
</g>
</svg>
