<?xml version="1.0" encoding="iso-8859-1"?>
<!-- Generator: Adobe Illustrator 19.0.0, SVG Export Plug-In . SVG Version: 6.00 Build 0)  -->
<svg version="1.1" id="Layer_1" xmlns="http://www.w3.org/2000/svg" xmlns:xlink="http://www.w3.org/1999/xlink" x="0px" y="0px"
	 viewBox="0 0 511.999 511.999" style="enable-background:new 0 0 511.999 511.999;" xml:space="preserve">
<g>
	<g>
		<path d="M510.621,93.31c-1.491-2.203-3.977-3.523-6.638-3.523h-30.885l-40.407-40.407c-1.991-1.991-4.881-2.792-7.613-2.109
			l-34.205,8.551c-2.431,0.608-4.437,2.316-5.425,4.62l-25.653,59.858c-0.883,2.061-0.864,4.396,0.056,6.441
			c0.918,2.046,2.651,3.613,4.778,4.322l9.359,3.12l-93.351,57.447l-72.054-24.018l-39.359-31.487l-7.978-39.892
			c-0.451-2.254-1.848-4.208-3.837-5.362c-1.989-1.154-4.376-1.399-6.559-0.671l-76.96,25.653c-2.601,0.867-4.578,3.003-5.242,5.661
			l-7.244,28.976l-54.522,7.789C2.934,158.842,0,162.223,0,166.213v25.653c0,1.244,0.29,2.472,0.847,3.585l16.256,32.513v40.863
			c0,2.312,0.998,4.511,2.737,6.034l68.409,59.858c1.461,1.278,3.337,1.983,5.279,1.983h40.328l23.634,15.755
			c1.77,1.18,3.935,1.608,6.019,1.191l33.167-6.633v21.105l-6.203,6.203c-2.889,2.888-3.143,7.487-0.591,10.677l34.205,42.756
			c2.206,2.758,5.958,3.747,9.237,2.435l39.413-15.766l48.087,24.044c1.126,0.564,2.355,0.847,3.584,0.847
			c1.108,0,2.218-0.23,3.256-0.69l76.96-34.205c1.7-0.756,3.083-2.077,3.914-3.741l34.205-68.409
			c0.997-1.993,1.119-4.313,0.336-6.401l-24.426-65.135l6.987-13.976c1.543-3.086,0.938-6.814-1.502-9.253l-19.117-19.117
			l21.247-15.936l12.185,12.185c3.131,3.131,8.207,3.131,11.337,0l51.307-51.307c2.44-2.44,3.045-6.167,1.502-9.253l-6.941-13.883
			l15.765-39.413C512.415,98.311,512.112,95.512,510.621,93.31z M479.711,144.144l5.968,11.934l-41.553,41.553l-11.434-11.434
			c-2.821-2.821-7.287-3.139-10.478-0.745l-34.205,25.653c-1.859,1.395-3.022,3.527-3.186,5.845
			c-0.165,2.317,0.684,4.593,2.328,6.237l21.568,21.568l-5.968,11.934c-0.997,1.993-1.119,4.313-0.336,6.401l24.426,65.135
			l-31.355,62.71l-70.875,31.5l-47.923-23.961c-1.126-0.563-2.354-0.847-3.585-0.847c-1.009,0-2.02,0.19-2.978,0.573l-37.233,14.894
			l-26.007-32.508l3.477-3.477c1.504-1.504,2.348-3.542,2.348-5.668v-34.205c0-2.402-1.076-4.676-2.934-6.2
			c-1.858-1.523-4.3-2.132-6.655-1.662l-39.5,7.9l-22.891-15.261c-1.317-0.878-2.865-1.347-4.447-1.347H96.54l-63.405-55.479
			v-39.118c0-1.244-0.29-2.472-0.847-3.585l-16.256-32.511v-16.808l52.975-7.568c3.227-0.462,5.853-2.829,6.643-5.991l7.483-29.935
			l64.171-21.391l6.769,33.851c0.37,1.849,1.381,3.509,2.853,4.688l42.756,34.205c0.739,0.591,1.576,1.046,2.472,1.346l76.96,25.653
			c2.25,0.75,4.717,0.465,6.736-0.778l111.165-68.409c2.652-1.632,4.12-4.654,3.763-7.747c-0.357-3.094-2.474-5.7-5.429-6.686
			l-17.388-5.796l20.655-48.194l25.943-6.486l39.547,39.547c1.504,1.502,3.543,2.346,5.669,2.346h22.363l-12.705,31.762
			C478.587,139.708,478.687,142.096,479.711,144.144z"/>
	</g>
</g>
<g>
	<g>
		<path d="M315.858,448.935h-8.551c-4.427,0-8.017,3.589-8.017,8.017c0,4.427,3.589,8.017,8.017,8.017h8.551
			c4.427,0,8.017-3.589,8.017-8.017C323.875,452.524,320.285,448.935,315.858,448.935z"/>
	</g>
</g>
<g>
	<g>
		<path d="M319.227,287.135c-1.579-4.862-6.075-8.155-11.186-8.194l-22.785-0.177l-7.209-21.615
			c-1.617-4.85-6.139-8.107-11.25-8.107s-9.633,3.258-11.25,8.108l-7.209,21.615l-22.785,0.177
			c-5.111,0.04-9.607,3.333-11.187,8.194c-1.58,4.861,0.122,10.167,4.234,13.204l18.329,13.536l-6.873,21.724
			c-1.542,4.874,0.2,10.167,4.335,13.172s9.708,3.027,13.867,0.053l18.537-13.25l18.537,13.25c2.066,1.477,4.481,2.215,6.896,2.215
			c2.446,0,4.89-0.757,6.97-2.269c4.135-3.005,5.878-8.298,4.336-13.171l-6.873-21.725l18.33-13.536
			C319.106,297.303,320.807,291.997,319.227,287.135z M282.53,304.381c-2.758,2.036-3.915,5.599-2.882,8.867l4.826,15.254
			l-13.016-9.304c-2.788-1.993-6.535-1.993-9.324,0l-13.016,9.304l4.826-15.254c1.034-3.269-0.124-6.831-2.882-8.867l-12.871-9.505
			l15.999-0.124c3.428-0.026,6.458-2.229,7.543-5.48l5.062-15.177l5.062,15.177c1.085,3.252,4.115,5.455,7.543,5.48l15.999,0.124
			L282.53,304.381z"/>
	</g>
</g>
<g>
	<g>
		<path d="M350.063,235.156c-6.778,0-12.292,5.514-12.292,12.292s5.514,12.292,12.292,12.292c6.778,0,12.292-5.514,12.292-12.292
			S356.841,235.156,350.063,235.156z"/>
	</g>
</g>
<g>
	<g>
		<path d="M350.063,354.872c-6.778,0-12.292,5.514-12.292,12.292c0,6.778,5.514,12.292,12.292,12.292
			c6.778,0,12.292-5.514,12.292-12.292C362.355,360.387,356.841,354.872,350.063,354.872z"/>
	</g>
</g>
<g>
	<g>
		<path d="M379.992,320.668c-6.778,0-12.292,5.514-12.292,12.292c0,6.778,5.514,12.292,12.292,12.292
			c6.778,0,12.292-5.514,12.292-12.292C392.284,326.182,386.77,320.668,379.992,320.668z"/>
	</g>
</g>
<g>
	<g>
		<path d="M379.992,269.361c-6.778,0-12.292,5.514-12.292,12.292c0,6.778,5.514,12.292,12.292,12.292
			c6.778,0,12.292-5.514,12.292-12.292C392.284,274.875,386.77,269.361,379.992,269.361z"/>
	</g>
</g>
<g>
</g>
<g>
</g>
<g>
</g>
<g>
</g>
<g>
</g>
<g>
</g>
<g>
</g>
<g>
</g>
<g>
</g>
<g>
</g>
<g>
</g>
<g>
</g>
<g>
</g>
<g>
</g>
<g>
</g>
</svg>
