<?xml version="1.0" encoding="utf-8"?>
<!-- Generator: Adobe Illustrator 24.0.1, SVG Export Plug-In . SVG Version: 6.00 Build 0)  -->
<svg version="1.1" id="Capa_1" xmlns="http://www.w3.org/2000/svg" xmlns:xlink="http://www.w3.org/1999/xlink" x="0px" y="0px"
	 viewBox="0 0 566.9 566.9" style="enable-background:new 0 0 566.9 566.9;" xml:space="preserve">
<style type="text/css">
	.st0{fill:none;stroke:#333333;stroke-width:6.26;stroke-linecap:round;stroke-linejoin:round;}
	.st1{fill:#5E897A;}
	.st2{fill:#333333;}
	.st3{fill:#00B047;}
	.st4{fill:#FFAA0E;}
	.st5{fill:#FFFFFF;}
	.st6{fill:#194396;}
	.st7{fill:#FF2020;}
	.st8{fill:#FFF4FF;}
	.st9{fill:#EE0026;}
	.st10{fill:#F1C390;stroke:#333333;stroke-width:6.26;stroke-linecap:round;stroke-linejoin:round;}
	.st11{fill:#333333;stroke:#333333;stroke-width:0.24;stroke-miterlimit:10;}
	.st12{fill:#E7D4BF;stroke:#333333;stroke-width:6.26;stroke-linecap:round;stroke-linejoin:round;}
	.st13{fill:#5E897A;stroke:#333333;stroke-width:6.26;stroke-linecap:round;stroke-linejoin:round;}
	.st14{fill:#FF3844;}
	.st15{fill:#FD2A2A;}
	.st16{fill:#989797;}
</style>
<title>Mesa de trabajo 9</title>
<line class="st0" x1="182.7" y1="217.2" x2="191.4" y2="294"/>
<path class="st1" d="M118.7,249.4c-1.6,0-2.9-1.1-3.1-2.7l-5.8-39.9c-0.3-1.7,0.9-3.3,2.6-3.5c0,0,0,0,0,0L176,194h0.4
	c1.6,0,2.9,1.1,3.1,2.7l5.9,39.9c0.2,1.7-0.9,3.3-2.6,3.6l-63.6,9.3C119,249.5,118.8,249.5,118.7,249.4z"/>
<path class="st2" d="M176.4,197.1l5.9,39.9l-63.6,9.3l-5.9-39.9L176.4,197.1 M176.4,190.9c-0.3,0-0.6,0-0.9,0.1l-63.6,9.3
	c-3.4,0.5-5.8,3.7-5.3,7.1l5.9,39.9c0.4,3.1,3.1,5.4,6.2,5.4c0.3,0,0.6,0,0.9-0.1l63.6-9.4c3.4-0.5,5.8-3.7,5.3-7.1c0,0,0,0,0,0
	l-5.9-39.9C182.2,193.1,179.6,190.8,176.4,190.9L176.4,190.9z"/>
<rect x="115.4" y="201.5" transform="matrix(0.9894 -0.1452 0.1452 0.9894 -30.6312 23.7789)" class="st3" width="64.3" height="40.3"/>
<rect x="148.6" y="199.1" transform="matrix(0.9894 -0.1452 0.1452 0.9894 -30.1044 26.1504)" class="st4" width="30.9" height="40.3"/>
<rect x="136.8" y="201.6" transform="matrix(0.9894 -0.1452 0.1452 0.9894 -30.62 23.7896)" class="st5" width="21.7" height="40.1"/>
<path class="st1" d="M332.2,239.9c-1.6,0-3-1.3-3.1-2.9l-2.8-40.3c-0.1-1.7,1.2-3.2,2.9-3.3l64.4-4.5h0.2c1.6,0,3,1.3,3.1,2.9
	l2.8,40.2c0.1,1.7-1.2,3.2-2.9,3.3c0,0,0,0,0,0l-64.4,4.5L332.2,239.9z"/>
<path class="st2" d="M393.8,192l2.8,40.3l-64.4,4.5l-2.8-40.3L393.8,192 M393.8,185.7h-0.4l-64.4,4.5c-3.4,0.2-6,3.2-5.8,6.6
	c0,0,0,0,0,0l2.8,40.3c0.2,3.3,3,5.8,6.2,5.8h0.4l64.4-4.5c3.4-0.2,6.1-3.2,5.8-6.7c0,0,0,0,0,0l-2.8-40.3
	C399.8,188.3,397.1,185.7,393.8,185.7L393.8,185.7z"/>
<line class="st0" x1="326.9" y1="200.6" x2="331.5" y2="291"/>
<polygon class="st6" points="328.4,195.7 393.8,191 396.6,232.8 331.3,237.4 "/>
<polygon class="st7" points="373.6,210.5 374.7,213 372.4,211.5 372.4,211.5 372.4,211.5 370.3,213.3 371,210.7 371.1,210.6 
	371.1,210.6 368.7,209.3 371.4,209.1 372,206.4 373,209 373,209 373,209 375.7,208.8 373.6,210.5 373.6,210.5 "/>
<path class="st5" d="M375,213.4l-2.6-1.7l-2.4,2l0.9-3l-2.7-1.6l3.1-0.2l0.6-3l1.2,2.9l3.1-0.2l-2.4,1.9L375,213.4z M371.1,210.8
	l-0.6,2.1l1.7-1.4l0.1-0.5l0.2,0.5l1.8,1.2l-0.9-2l-0.4-0.2h0.5l1.7-1.4l-2.2,0.2l-0.4,0.2l0.2-0.4l-0.8-2l-0.5,2.3l-2.3,0.2
	l1.9,1.1h0.5L371.1,210.8z"/>
<polygon class="st7" points="380.6,202.4 381.7,205 379.4,203.5 379.4,203.5 379.4,203.5 377.3,205.3 378,202.6 378.1,202.6 
	378,202.6 375.7,201.2 378.4,201 379,198.4 380,200.9 380,200.9 380,200.9 382.7,200.7 380.6,202.4 380.6,202.4 "/>
<path class="st5" d="M382,205.4l-2.6-1.7l-2.4,2l0.8-3l-2.7-1.6l3.1-0.2l0.6-3l1.2,2.9l3.1-0.2l-2.5,1.9L382,205.4z M378.1,202.7
	l-0.6,2.1l1.7-1.4l0.1-0.5l0.2,0.5l1.8,1.2l-0.9-2l-0.4-0.2h0.4l1.7-1.4l-2.2,0.2l-0.3,0.2l0.1-0.3l-0.8-2l-0.5,2.3l-2.3,0.2
	l1.9,1.1h0.5L378.1,202.7z"/>
<polygon class="st7" points="382.5,226.4 383.9,229.4 381.1,227.7 381.1,227.6 381.1,227.7 378.6,229.8 379.5,226.6 379.5,226.6 
	379.5,226.6 376.6,224.9 379.9,224.7 380.6,221.5 381.8,224.6 381.8,224.6 381.8,224.6 385.1,224.3 382.5,226.4 382.5,226.4 "/>
<path class="st5" d="M384.2,229.8l-3.1-2l-2.8,2.4l1-3.6l-3.2-1.8l3.6-0.2l0.8-3.6l1.4,3.4l3.7-0.3l-2.9,2.3L384.2,229.8z
	 M379.6,226.7l-0.8,2.7l2.1-1.8l0.1-0.4l0.2,0.4l2.3,1.5l-1.1-2.5l-0.4-0.2h0.4l2.2-1.7l-2.8,0.2l-0.3,0.1l0.1-0.3l-1-2.5l-0.6,2.8
	l-2.9,0.2l2.4,1.4h0.5L379.6,226.7z"/>
<polygon class="st7" points="388.6,209.4 389.7,211.9 387.4,210.4 387.4,210.4 387.4,210.4 385.3,212.2 386,209.6 386.1,209.6 
	386.1,209.6 383.7,208.2 386.4,208 387,205.4 388,207.9 388,207.9 388,207.9 390.7,207.7 388.6,209.4 388.6,209.4 "/>
<path class="st5" d="M385,212.7l0.8-3l-2.7-1.6l3.1-0.2l0.6-3l1.2,2.9l3.1-0.2l-2.5,1.9l1.3,2.8l-2.6-1.7L385,212.7z M387.5,210.3
	l1.8,1.2l-0.9-2l-0.4-0.2l0.5-0.1l1.7-1.4L388,208l-0.4,0.3l0.2-0.4l-0.8-2l-0.5,2.3l-2.3,0.2l1.9,1.1h0.5l-0.4,0.3l-0.6,2.1
	l1.7-1.4l0.1-0.4L387.5,210.3z"/>
<polygon class="st6" points="361.2,194.4 362.6,214.3 362.6,214.3 330.9,216.5 329.5,196.6 "/>
<polygon class="st8" points="362.5,212.2 362.6,214.3 362.6,214.3 359.3,214.5 349.1,209.1 348.1,208.6 346.9,207.9 346.5,207.7 
	345.3,207.1 344.9,206.8 344.5,206.6 343.7,206.2 343.5,206.1 343.1,205.9 339.5,203.9 337.8,203.1 329.6,198.7 329.5,196.6 
	329.5,196.6 329.6,196.6 332.8,196.4 343.1,201.9 344.2,202.5 344.4,202.6 346.1,203.5 346.2,203.6 346.9,203.9 347.8,204.4 
	348,204.5 348.9,205 349.7,205.4 351.9,206.6 353.5,207.4 "/>
<polygon class="st7" points="362.6,214.2 362.6,214.3 360.5,214.4 349.1,208.4 348.1,207.8 348.1,207.8 347.1,207.3 346.5,207 
	345.4,206.4 344.4,205.9 344.3,205.8 343.6,205.4 343.4,205.3 340.7,203.9 339,203 329.6,198 329.5,196.6 329.5,196.6 329.6,196.6 
	341.2,202.8 342.9,203.7 343.3,203.9 344.3,204.5 344.7,204.7 345.3,205 346.5,205.6 348,206.4 348.1,206.5 348.7,206.8 349,207 
	350.3,207.7 "/>
<polygon class="st8" points="361.2,194.8 361.4,196.9 354.5,201.9 353,203 349.7,205.4 348.9,205.9 348.1,206.5 348,206.6 
	347.6,206.9 347.1,207.3 346.5,207.7 346.1,208 344.6,209.1 343.7,209.8 334.8,216.2 330.9,216.5 330.8,214.8 339.5,208.4 
	341,207.4 343.1,205.9 343.4,205.6 343.6,205.4 344.4,204.9 344.7,204.7 346.2,203.6 346.4,203.5 347.7,202.5 347.9,202.4 
	348.6,201.8 358.5,194.6 361,194.4 "/>
<polygon class="st7" points="361.1,194.9 351.2,202.1 349.8,203.2 348.8,203.9 348,204.5 347.9,204.6 346.5,205.6 345.4,206.4 
	344.9,206.8 344.5,207.1 344.4,207.1 343.6,207.7 342.9,208.2 331.6,216.5 330.9,216.5 330.8,215.6 340.7,208.4 342.2,207.3 
	343.5,206.4 343.7,206.2 344.3,205.8 344.4,205.7 345.3,205 346.9,203.9 347.6,203.4 347.8,203.2 348.7,202.6 349.1,202.3 
	359.7,194.5 360.8,194.4 361.2,194.4 361.2,194.8 "/>
<rect x="330.1" y="202.5" transform="matrix(0.9975 -7.027879e-02 7.027879e-02 0.9975 -13.568 24.8266)" class="st5" width="31.8" height="5.5"/>
<rect x="330.1" y="203.5" transform="matrix(0.9975 -7.027879e-02 7.027879e-02 0.9975 -13.5683 24.8267)" class="st7" width="31.8" height="3.5"/>
<rect x="344.4" y="195.5" transform="matrix(0.9975 -7.027879e-02 7.027879e-02 0.9975 -13.5819 24.8348)" class="st9" width="3.5" height="19.9"/>
<polygon class="st5" points="348.1,207.8 349,207.8 349.6,215.2 344.1,215.6 343.6,208.1 344.6,208.1 344.2,202.6 343.2,202.7 
	342.7,195.7 348.2,195.3 348.6,202.3 347.7,202.4 "/>
<rect x="344.4" y="195.5" transform="matrix(0.9975 -7.027879e-02 7.027879e-02 0.9975 -13.5819 24.8341)" class="st7" width="3.5" height="19.9"/>
<polygon class="st10" points="172.1,257.6 172.1,257.6 171.9,253.7 177.5,253.4 177.7,257.2 179.5,257.2 179.3,253.4 184.9,253 
	185.1,256.9 186.9,256.8 186.7,252.9 192.2,252.6 192.5,256.5 194.3,256.4 194.1,252.5 199.6,252.2 199.8,256 201.7,255.9 
	201.4,252.1 207,251.8 207.2,256.3 211.7,287.8 171.1,290.1 "/>
<path class="st11" d="M181.3,267l-4,0.2l-0.2-3.4c-0.1-0.9,0.6-1.6,1.5-1.6c0,0,0,0,0,0l0.9,0c0.9,0,1.6,0.6,1.6,1.5L181.3,267z"/>
<path class="st11" d="M188.8,266.6l-4,0.2l-0.2-3.4c0-0.9,0.6-1.6,1.5-1.6l0.9,0c0.9,0,1.6,0.6,1.6,1.5L188.8,266.6z"/>
<path class="st11" d="M196.3,266.2l-4,0.2l-0.2-3.4c0-0.9,0.6-1.6,1.5-1.6l0.9,0c0.9-0.1,1.6,0.6,1.6,1.4c0,0,0,0,0,0L196.3,266.2z"
	/>
<path class="st11" d="M203.9,267.8l-4,0.2l-0.3-5.4c-0.1-0.9,0.6-1.6,1.4-1.7h0.9c0.9,0,1.6,0.6,1.6,1.5L203.9,267.8z"/>
<polygon class="st12" points="279.5,279.5 279.6,282.4 278.1,282.2 278,279.2 273.5,278.5 273.6,281.4 272.2,281.2 272,278.3 
	267.5,277.5 267.7,280.5 266.2,280.2 266.1,277.3 261.6,276.5 261.8,279.5 260.3,279.2 260.1,276.3 255.6,275.6 255.8,278.5 
	254.4,278.3 254.2,275.3 249.8,274.6 249.9,277.5 248.4,277.3 248.3,274.4 243.8,273.6 244,276.6 242.5,276.3 242.4,273.4 
	237.9,272.7 238.1,275.6 236.6,275.4 236.5,272.4 232.1,271.7 232.2,274.6 230.8,274.4 230.6,271.5 226.2,270.7 226.3,273.6 
	224.9,273.4 224.8,270.5 220.3,269.8 220.5,272.7 219.1,272.5 218.9,269.5 214.5,268.8 214.6,271.7 213.2,271.5 213,268.6 
	208.6,267.9 208.8,270.8 207.4,270.5 207.2,267.6 202.8,266.9 203,269.8 201.5,269.6 201.4,266.7 197,266 197.2,268.9 197.2,269.4 
	199,301.9 285.9,316.3 284.1,283.7 284.1,283.2 284,280.2 "/>
<path class="st13" d="M308.8,310.5c0.7,12.8-13.9,24.1-32.7,25.1c-6.1,0.4-12.2-0.5-17.9-2.4c-9.2,10.2-25.1,17.5-43.6,18.5
	c-12.7,0.7-24.6-1.7-34.1-6.2c-4.9,2-10.1,3.1-15.3,3.4c-18.8,1-34.5-8.5-35.2-21.4s13.9-24.1,32.7-25.1l0,0
	c7.7-13.3,26.1-23.2,47.9-24.4c19.4-1.1,36.7,5,46.8,15c5.1-2.2,10.6-3.5,16.2-3.8C292.3,288.1,308.1,297.6,308.8,310.5z"/>
<path class="st11" d="M310.1,290.2l4.8-0.3l-0.4-6.4c-0.1-1-0.9-1.8-2-1.8c0,0,0,0,0,0l-1.1,0.1c-1,0.1-1.8,0.9-1.8,2c0,0,0,0,0,0
	L310.1,290.2z"/>
<path class="st1" d="M524.4,330.8c-0.2,0-0.3,0-0.5,0L460.2,320c-1.7-0.3-2.9-1.9-2.6-3.6l6.7-39.8c0.3-1.5,1.6-2.6,3.1-2.6
	c0.2,0,0.3,0,0.5,0l63.7,10.7c1.7,0.3,2.9,1.9,2.6,3.6c0,0,0,0,0,0l-6.7,39.8C527.2,329.6,525.9,330.8,524.4,330.8L524.4,330.8z"/>
<path class="st2" d="M467.4,277.1l63.7,10.7l-6.7,39.8L460.7,317L467.4,277.1 M467.4,270.9c-3.1,0-5.7,2.2-6.2,5.2l-6.7,39.8
	c-0.6,3.4,1.7,6.6,5.1,7.2c0,0,0,0,0,0l63.7,10.7c0.3,0.1,0.7,0.1,1,0.1c3.1,0,5.7-2.2,6.2-5.2l6.7-39.8c0.6-3.4-1.7-6.6-5.1-7.2
	c0,0,0,0,0,0L468.4,271C468.1,270.9,467.8,270.9,467.4,270.9L467.4,270.9z"/>
<polygon class="st6" points="460.7,318.1 467.6,276.4 532.1,287.9 525.2,329.5 "/>
<polygon class="st6" points="498.8,282.5 495.5,302.2 495.5,302.2 464.2,296.9 467.5,277.3 "/>
<polygon class="st8" points="495.9,300.1 495.5,302.2 495.5,302.2 492.3,301.6 483.6,294 482.8,293.2 481.8,292.3 481.4,292 
	480.4,291.1 480,290.8 479.7,290.5 479,289.9 478.8,289.7 478.5,289.4 475.5,286.7 474.1,285.5 467.1,279.3 467.5,277.3 
	467.5,277.2 467.6,277.3 470.7,277.8 479.5,285.6 480.4,286.4 480.6,286.6 482,287.8 482.1,287.9 482.6,288.4 483.5,289.1 
	483.6,289.3 484.3,289.9 485,290.5 486.9,292.2 488.3,293.4 "/>
<polygon class="st7" points="495.5,302.1 495.5,302.2 493.4,301.8 483.8,293.3 483,292.5 482.9,292.5 482.1,291.8 481.6,291.3 
	480.7,290.5 479.8,289.7 479.7,289.6 479.2,289.2 479,289 476.6,286.9 475.3,285.7 467.3,278.6 467.5,277.2 467.5,277.2 
	467.6,277.3 477.4,286.1 478.8,287.3 479.2,287.6 480,288.4 480.4,288.7 480.9,289.1 481.9,290 483.1,291.1 483.3,291.3 
	483.8,291.7 484,291.9 485.1,292.9 "/>
<polygon class="st8" points="498.8,282.9 498.4,285 490.5,288.2 488.8,289 485,290.5 484.2,290.9 483.3,291.3 483.1,291.3 
	482.7,291.5 482.1,291.8 481.4,292 481,292.2 479.3,292.9 478.2,293.4 468.1,297.6 464.2,296.9 464.5,295.3 474.5,291.1 
	476.2,290.4 478.5,289.4 478.9,289.3 479.2,289.2 480,288.8 480.4,288.7 482.1,287.9 482.3,287.9 483.8,287.2 484,287.2 
	484.9,286.8 496.2,282.1 498.6,282.5 "/>
<polygon class="st7" points="498.7,283 487.3,287.7 485.6,288.4 484.5,288.9 483.6,289.3 483.4,289.3 481.9,290 480.7,290.5 
	480,290.8 479.6,290.9 479.5,291 478.5,291.4 477.8,291.7 464.9,297 464.2,296.9 464.3,296 475.7,291.3 477.4,290.6 478.8,290 
	479,289.9 479.7,289.6 479.8,289.6 480.9,289.1 482.6,288.4 483.5,288.1 483.7,288 484.7,287.5 485.2,287.4 497.3,282.3 
	498.4,282.5 498.8,282.5 498.8,283 "/>
<rect x="478.8" y="273.6" transform="matrix(0.1654 -0.9862 0.9862 0.1654 116.3565 716.5064)" class="st5" width="5.5" height="31.8"/>
<rect x="479.8" y="273.6" transform="matrix(0.1654 -0.9862 0.9862 0.1654 116.3621 716.5031)" class="st7" width="3.5" height="31.8"/>
<rect x="471.6" y="288" transform="matrix(0.1654 -0.9862 0.9862 0.1654 116.1717 716.7673)" class="st9" width="19.9" height="3.5"/>
<polygon class="st5" points="482.9,292.5 483.9,292.7 482.6,300 477.2,299.1 478.5,291.8 479.4,291.9 480.3,286.5 479.4,286.4 
	480.5,279.5 485.9,280.4 484.8,287.3 483.8,287.1 "/>
<rect x="471.6" y="288" transform="matrix(0.1654 -0.9862 0.9862 0.1654 116.1704 716.7656)" class="st7" width="19.9" height="3.5"/>
<g id="c">
	<path id="a" class="st5" d="M479.3,304.8l0.5,3.1l3.1-0.6l-2.2,2.3l2.4,2.1l-3.2-0.3l-0.1,3.2l-1.8-2.6l-2.5,1.9l1-3l-3.1-0.8
		l3-1.1l-1.3-2.9l2.8,1.6L479.3,304.8z"/>
</g>
<path id="a-2" class="st5" d="M511.6,315.7l0.2,1.5l1.5-0.3l-1,1.1l1.2,1l-1.5-0.1v1.5l-0.9-1.3l-1.2,0.9l0.5-1.5l-1.5-0.4l1.4-0.5
	l-0.6-1.4l1.3,0.8L511.6,315.7z"/>
<path id="a-3" class="st5" d="M505.5,301.2l0.2,1.5l1.5-0.3l-1,1.1l1.2,1l-1.5-0.1v1.5l-0.9-1.3l-1.2,0.9l0.5-1.5l-1.5-0.4l1.4-0.5
	l-0.6-1.4l1.3,0.8L505.5,301.2z"/>
<path id="a-4" class="st5" d="M515.4,293.6l0.2,1.5l1.5-0.3l-1,1.1l1.2,1l-1.5-0.1v1.5l-0.8-1.2l-1.2,0.9l0.5-1.5l-1.5-0.4l1.4-0.5
	l-0.6-1.4l1.3,0.8L515.4,293.6z"/>
<path id="a-5" class="st5" d="M521.6,301.6l0.2,1.5l1.5-0.3l-1,1.1l1.2,1l-1.5-0.1v1.5L521,305l-1.2,0.9l0.5-1.5l-1.5-0.4l1.4-0.5
	l-0.6-1.4l1.3,0.8L521.6,301.6z"/>
<path id="d" class="st5" d="M516.4,307.6l0.2,1l0.9,0.2l-0.8,0.5l0.1,1l-0.7-0.6l-0.9,0.4l0.4-0.9l-0.6-0.7l1,0.1L516.4,307.6z"/>
<line class="st0" x1="462" y1="290.3" x2="447.8" y2="378.3"/>
<path class="st1" d="M221.7,252.5c-1.5,0-2.8-1.1-3.1-2.6l-7.2-39.7c-0.3-1.7,0.8-3.3,2.5-3.6c0,0,0,0,0,0l63.3-11.5
	c0.2,0,0.4,0,0.6-0.1c1.5,0,2.8,1.1,3.1,2.6l7.2,39.7c0.3,1.7-0.8,3.3-2.5,3.6l-63.3,11.5C222.1,252.5,221.9,252.5,221.7,252.5z"/>
<path class="st2" d="M277.8,198.2l7.2,39.7l-63.3,11.5l-7.2-39.7L277.8,198.2 M277.8,191.9c-0.4,0-0.8,0-1.1,0.1l-63.3,11.5
	c-1.6,0.3-3.1,1.2-4,2.6c-0.9,1.4-1.3,3.1-1,4.7l7.2,39.7c0.5,3,3.1,5.1,6.2,5.1c0.4,0,0.7,0,1.1-0.1l63.3-11.5
	c3.4-0.6,5.7-3.9,5.1-7.3c0,0,0,0,0,0l-7.2-39.7C283.5,194.1,280.9,191.9,277.8,191.9L277.8,191.9z"/>
<rect x="217.6" y="203.6" transform="matrix(0.984 -0.1783 0.1783 0.984 -35.8932 48.1154)" class="st14" width="64.3" height="40.3"/>
<rect x="233.8" y="203.6" transform="matrix(0.984 -0.1783 0.1783 0.984 -35.8868 48.1282)" class="st5" width="32.1" height="40.3"/>
<polygon class="st14" points="250.1,230.8 251.3,237.9 252.6,237.6 251.2,230.4 258,230.6 256.8,228.5 262.1,221.5 260.3,221.5 
	260.6,217 257.1,218.4 255.9,216.5 253.1,220.5 252.7,212.4 250.6,213.9 247,209.6 245.2,215 242.3,214 245.1,221.9 240.9,218.9 
	240.9,221.2 237,221.1 239,224.9 237.2,226 244.3,230.4 243.8,232.8 "/>
<line class="st0" x1="280.8" y1="198.1" x2="296.2" y2="284.8"/>
<line class="st0" x1="140.8" y1="295" x2="153.2" y2="362.2"/>
<path class="st1" d="M74.6,323c-1.5,0-2.8-1.1-3.1-2.5l-8.1-40.2c-0.2-0.8,0-1.7,0.5-2.4c0.5-0.7,1.2-1.2,2-1.3l64.9-13.2
	c0.2,0,0.4-0.1,0.6-0.1c1.5,0,2.8,1.1,3.1,2.5l8.1,40.1c0.2,0.8,0,1.7-0.5,2.4c-0.5,0.7-1.2,1.2-2,1.3l-64.9,13.2
	C75,323,74.8,323,74.6,323z"/>
<path class="st2" d="M131.4,266.5l8.1,40.1l-64.9,13.2l-8.2-40.1L131.4,266.5 M131.5,260.3c-0.4,0-0.8,0-1.2,0.1l-65,13.2
	c-3.4,0.7-5.6,4-4.9,7.4c0,0,0,0,0,0.1l8.1,40.1c0.6,2.9,3.2,5,6.1,5c0.4,0,0.8,0,1.2-0.1l65-13.2c3.4-0.7,5.6-4,4.9-7.4
	c0,0,0,0,0,0l-8.1-40.1C137,262.4,134.4,260.3,131.5,260.3L131.5,260.3z"/>
<rect x="68.6" y="285.4" transform="matrix(0.98 -0.1989 0.1989 0.98 -55.0435 25.9696)" class="st15" width="66.3" height="3.2"/>
<rect x="67.4" y="279.3" transform="matrix(0.98 -0.1989 0.1989 0.98 -53.8378 25.5987)" class="st15" width="66.3" height="3.2"/>
<rect x="66.1" y="273.1" transform="matrix(0.98 -0.1989 0.1989 0.98 -52.6363 25.2265)" class="st15" width="66.3" height="3.2"/>
<rect x="69.9" y="291.6" transform="matrix(0.98 -0.1989 0.1989 0.98 -56.2464 26.3443)" class="st15" width="66.3" height="3.2"/>
<rect x="71.2" y="297.8" transform="matrix(0.98 -0.1989 0.1989 0.98 -57.448 26.7164)" class="st15" width="66.3" height="3.2"/>
<rect x="72.4" y="304" transform="matrix(0.98 -0.1989 0.1989 0.98 -58.6517 27.0872)" class="st15" width="66.3" height="3.2"/>
<rect x="73.6" y="310.1" transform="matrix(0.98 -0.1989 0.1989 0.98 -59.8552 27.4595)" class="st15" width="66.3" height="3.2"/>
<rect x="68" y="282.3" transform="matrix(0.98 -0.1989 0.1989 0.98 -54.4405 25.7841)" class="st5" width="66.3" height="3.2"/>
<rect x="66.8" y="276.2" transform="matrix(0.98 -0.1989 0.1989 0.98 -53.2393 25.4121)" class="st5" width="66.3" height="3.2"/>
<rect x="69.3" y="288.5" transform="matrix(0.98 -0.1989 0.1989 0.98 -55.644 26.1569)" class="st5" width="66.3" height="3.2"/>
<rect x="70.5" y="294.7" transform="matrix(0.98 -0.1989 0.1989 0.98 -56.8455 26.529)" class="st5" width="66.3" height="3.2"/>
<rect x="71.8" y="300.9" transform="matrix(0.98 -0.1989 0.1989 0.98 -58.051 26.9019)" class="st5" width="66.3" height="3.2"/>
<rect x="73" y="307.1" transform="matrix(0.98 -0.1989 0.1989 0.98 -59.2541 27.2746)" class="st5" width="66.3" height="3.2"/>
<rect x="68.1" y="277.2" transform="matrix(0.98 -0.1989 0.1989 0.98 -55.4018 21.74)" class="st6" width="24.8" height="19.1"/>
<polygon class="st5" points="87.5,279.4 87.9,280.1 87.2,279.8 87.2,279.8 87.2,279.8 86.7,280.3 86.8,279.6 86.8,279.5 86.8,279.5 
	86.1,279.2 86.9,279.1 86.9,278.3 87.3,279 87.3,279 87.3,279 88.1,278.9 87.5,279.4 87.5,279.4 "/>
<polygon class="st5" points="88.3,283.2 88.7,283.9 88,283.5 88,283.5 88,283.5 87.5,284.1 87.6,283.3 87.6,283.3 87.6,283.3 
	86.9,283 87.6,282.9 87.7,282.1 88.1,282.8 88.1,282.8 88.1,282.8 88.8,282.6 88.3,283.2 88.3,283.2 "/>
<polygon class="st5" points="89.1,287 89.5,287.6 88.8,287.3 88.8,287.3 88.8,287.3 88.2,287.9 88.3,287.1 88.4,287.1 88.3,287.1 
	87.6,286.8 88.4,286.6 88.4,285.9 88.8,286.6 88.8,286.6 88.8,286.6 89.6,286.4 89.1,287 89.1,287 "/>
<polygon class="st5" points="89.8,290.8 90.2,291.4 89.5,291.1 89.5,291.1 89.5,291.1 89,291.7 89.1,290.9 89.1,290.9 89.1,290.9 
	88.4,290.6 89.2,290.4 89.2,289.7 89.6,290.3 89.6,290.3 89.6,290.3 90.4,290.2 89.8,290.7 89.8,290.7 "/>
<polygon class="st5" points="83.5,280.2 83.9,280.9 83.2,280.6 83.2,280.6 83.2,280.6 82.7,281.1 82.8,280.4 82.8,280.4 82.8,280.4 
	82.1,280.1 82.8,279.9 82.9,279.1 83.3,279.8 83.3,279.8 83.3,279.8 84.1,279.7 83.5,280.2 83.5,280.2 "/>
<polygon class="st5" points="84.3,284 84.7,284.7 84,284.4 84,284.3 84,284.4 83.4,284.9 83.6,284.1 83.6,284.1 83.6,284.1 
	82.8,283.8 83.6,283.7 83.7,282.9 84.1,283.6 84.1,283.6 84.1,283.6 84.8,283.4 84.3,284 84.3,284 "/>
<polygon class="st5" points="85.1,287.8 85.4,288.5 84.8,288.1 84.7,288.1 84.7,288.1 84.2,288.7 84.3,287.9 84.3,287.9 84.3,287.9 
	83.6,287.6 84.4,287.5 84.4,286.7 84.8,287.4 84.8,287.4 84.8,287.4 85.6,287.2 85,287.8 85,287.8 "/>
<polygon class="st5" points="85.8,291.6 86.2,292.2 85.5,291.9 85.5,291.9 85.5,291.9 85,292.5 85.1,291.7 85.1,291.7 85.1,291.7 
	84.4,291.4 85.1,291.2 85.2,290.5 85.6,291.1 85.6,291.2 85.6,291.1 86.4,291 85.8,291.6 85.8,291.6 "/>
<polygon class="st5" points="79.5,281 79.9,281.7 79.2,281.4 79.2,281.4 79.2,281.4 78.7,282 78.8,281.2 78.8,281.2 78.8,281.2 
	78.1,280.9 78.8,280.7 78.9,280 79.3,280.6 79.3,280.6 79.3,280.6 80,280.5 79.5,281 79.5,281 "/>
<polygon class="st5" points="80.3,284.8 80.7,285.5 80,285.2 80,285.2 80,285.2 79.4,285.7 79.6,285 79.6,285 79.6,285 78.8,284.7 
	79.6,284.5 79.7,283.7 80,284.4 80,284.4 80,284.4 80.8,284.3 80.3,284.8 80.3,284.8 "/>
<polygon class="st5" points="81,288.6 81.4,289.3 80.7,288.9 80.7,288.9 80.7,288.9 80.2,289.5 80.3,288.8 80.3,288.7 80.3,288.7 
	79.6,288.4 80.4,288.3 80.4,287.5 80.8,288.2 80.8,288.2 80.8,288.2 81.6,288 81,288.6 81,288.6 "/>
<polygon class="st5" points="81.8,292.4 82.2,293 81.5,292.7 81.5,292.7 81.5,292.7 81,293.3 81.1,292.5 81.1,292.5 81.1,292.5 
	80.4,292.2 81.1,292.1 81.2,291.3 81.6,292 81.6,292 81.6,292 82.3,291.8 81.8,292.4 81.8,292.4 "/>
<polygon class="st5" points="75.6,281.8 75.9,282.5 75.2,282.2 75.2,282.2 75.2,282.2 74.7,282.8 74.8,282 74.8,282 74.8,282 
	74.1,281.7 74.9,281.5 74.9,280.8 75.3,281.4 75.3,281.4 75.3,281.4 76.1,281.3 75.5,281.8 75.5,281.8 "/>
<polygon class="st5" points="76.3,285.6 76.7,286.3 76,286 76,286 76,286 75.5,286.5 75.6,285.8 75.6,285.8 75.6,285.8 74.9,285.5 
	75.6,285.3 75.7,284.5 76.1,285.2 76.1,285.2 76.1,285.2 76.9,285.1 76.3,285.6 76.3,285.6 "/>
<polygon class="st5" points="77.1,289.4 77.5,290.1 76.8,289.7 76.8,289.7 76.8,289.7 76.2,290.3 76.4,289.5 76.4,289.5 76.4,289.5 
	75.7,289.2 76.4,289.1 76.5,288.3 76.8,289 76.8,289 76.8,289 77.6,288.8 77.1,289.4 77.1,289.4 "/>
<polygon class="st5" points="77.8,293.2 78.2,293.9 77.5,293.5 77.5,293.5 77.5,293.5 77,294.1 77.1,293.3 77.1,293.3 77.1,293.3 
	76.4,293 77.2,292.9 77.2,292.1 77.6,292.8 77.6,292.8 77.6,292.8 78.4,292.6 77.8,293.2 77.8,293.2 "/>
<polygon class="st5" points="71.6,282.6 72,283.3 71.3,283 71.3,283 71.3,283 70.8,283.6 70.9,282.8 70.9,282.8 70.9,282.8 
	70.2,282.5 70.9,282.3 71,281.6 71.4,282.2 71.4,282.2 71.4,282.2 72.1,282.1 71.6,282.6 71.6,282.6 "/>
<polygon class="st5" points="72.4,286.4 72.8,287.1 72.1,286.8 72.1,286.8 72.1,286.8 71.5,287.3 71.6,286.6 71.7,286.6 71.7,286.6 
	70.9,286.3 71.7,286.1 71.8,285.3 72.1,286 72.1,286 72.1,286 72.9,285.9 72.3,286.4 72.3,286.4 "/>
<polygon class="st5" points="73.1,290.2 73.5,290.9 72.8,290.5 72.8,290.5 72.8,290.5 72.3,291.1 72.4,290.4 72.4,290.3 72.4,290.3 
	71.7,290 72.5,289.9 72.5,289.1 72.9,289.8 72.9,289.8 72.9,289.8 73.7,289.6 73.1,290.2 73.1,290.2 "/>
<polygon class="st5" points="73.9,294 74.3,294.6 73.6,294.3 73.6,294.3 73.6,294.3 73.1,294.9 73.2,294.1 73.2,294.1 73.2,294.1 
	72.5,293.8 73.2,293.7 73.3,292.9 73.7,293.6 73.7,293.6 73.7,293.6 74.4,293.4 73.9,294 73.9,294 "/>
<polygon class="st5" points="89.9,280.9 90.3,281.6 89.6,281.2 89.6,281.2 89.6,281.2 89,281.8 89.2,281 89.2,281 89.2,281 
	88.4,280.7 89.2,280.6 89.2,279.8 89.6,280.5 89.6,280.5 89.6,280.5 90.4,280.3 89.9,280.9 89.9,280.9 "/>
<polygon class="st5" points="90.6,284.7 91,285.4 90.3,285 90.3,285 90.3,285 89.8,285.6 89.9,284.8 89.9,284.8 89.9,284.8 
	89.2,284.5 90,284.4 90,283.6 90.4,284.3 90.4,284.3 90.4,284.3 91.2,284.1 90.6,284.7 90.6,284.7 "/>
<polygon class="st5" points="91.4,288.5 91.8,289.1 91.1,288.8 91.1,288.8 91.1,288.8 90.6,289.4 90.7,288.6 90.7,288.6 90.7,288.6 
	90,288.3 90.7,288.1 90.8,287.4 91.2,288.1 91.2,288.1 91.2,288.1 91.9,287.9 91.4,288.5 91.4,288.5 "/>
<polygon class="st5" points="92.2,292.2 92.6,292.9 91.9,292.6 91.9,292.6 91.9,292.6 91.3,293.2 91.4,292.4 91.5,292.4 91.4,292.4 
	90.7,292.1 91.5,291.9 91.6,291.2 91.9,291.9 91.9,291.9 91.9,291.8 92.7,291.7 92.2,292.2 92.2,292.2 "/>
<polygon class="st5" points="89.1,277.1 89.5,277.8 88.8,277.5 88.8,277.5 88.8,277.5 88.3,278.1 88.4,277.3 88.4,277.3 88.4,277.3 
	87.7,277 88.4,276.8 88.5,276.1 88.9,276.7 88.9,276.7 88.9,276.7 89.6,276.6 89.1,277.1 89.1,277.1 "/>
<polygon class="st5" points="85.9,281.7 86.3,282.4 85.6,282 85.6,282 85.6,282 85.1,282.6 85.2,281.9 85.2,281.8 85.2,281.8 
	84.5,281.5 85.3,281.4 85.3,280.6 85.7,281.3 85.7,281.3 85.7,281.3 86.5,281.1 85.9,281.7 85.9,281.7 "/>
<polygon class="st5" points="86.7,285.5 87.1,286.1 86.4,285.8 86.4,285.8 86.4,285.8 85.9,286.4 86,285.6 86,285.6 86,285.6 
	85.3,285.3 86,285.2 86.1,284.4 86.5,285.1 86.5,285.1 86.5,285.1 87.2,284.9 86.7,285.5 86.7,285.5 "/>
<polygon class="st5" points="87.5,289.3 87.9,289.9 87.2,289.6 87.2,289.6 87.2,289.6 86.6,290.2 86.8,289.4 86.8,289.4 86.8,289.4 
	86,289.1 86.8,289 86.9,288.2 87.2,288.9 87.2,288.9 87.2,288.9 88,288.7 87.5,289.3 87.5,289.3 "/>
<polygon class="st5" points="88.2,293 88.6,293.7 87.9,293.4 87.9,293.4 87.9,293.4 87.4,294 87.5,293.2 87.5,293.2 87.5,293.2 
	86.8,292.9 87.6,292.7 87.6,292 88,292.6 88,292.6 88,292.6 88.8,292.5 88.2,293 88.2,293 "/>
<polygon class="st5" points="85.2,277.9 85.6,278.6 84.9,278.3 84.9,278.3 84.9,278.3 84.3,278.9 84.5,278.1 84.5,278.1 84.5,278.1 
	83.7,277.8 84.5,277.6 84.6,276.9 84.9,277.5 84.9,277.5 84.9,277.5 85.7,277.4 85.2,277.9 85.2,277.9 "/>
<polygon class="st5" points="81.8,282.5 82.3,283.2 81.6,282.9 81.6,282.9 81.6,282.9 81,283.5 81.1,282.7 81.1,282.7 81.1,282.7 
	80.4,282.4 81.2,282.2 81.2,281.4 81.6,282.1 81.6,282.1 81.6,282.1 82.4,282 81.8,282.5 81.8,282.5 "/>
<polygon class="st5" points="82.6,286.3 83,287 82.3,286.6 82.3,286.6 82.3,286.6 81.8,287.2 81.9,286.5 81.9,286.4 81.9,286.4 
	81.2,286.1 81.9,286 82,285.2 82.4,285.9 82.4,285.9 82.4,285.9 83.2,285.8 82.6,286.3 82.6,286.3 "/>
<polygon class="st5" points="83.4,290.1 83.8,290.8 83.1,290.4 83.1,290.4 83.1,290.4 82.6,291 82.7,290.2 82.7,290.2 82.7,290.2 
	81.9,289.9 82.7,289.8 82.8,289 83.2,289.7 83.2,289.7 83.2,289.7 83.9,289.5 83.4,290.1 83.4,290.1 "/>
<polygon class="st5" points="84.2,293.9 84.6,294.5 83.8,294.2 83.8,294.2 83.8,294.2 83.3,294.8 83.4,294 83.4,294 83.4,294 
	82.7,293.7 83.5,293.6 83.5,292.8 83.9,293.5 83.9,293.5 83.9,293.5 84.7,293.3 84.2,293.9 84.1,293.9 "/>
<polygon class="st5" points="81.1,278.8 81.5,279.4 80.8,279.1 80.8,279.1 80.8,279.1 80.3,279.7 80.4,278.9 80.4,278.9 80.4,278.9 
	79.7,278.6 80.4,278.5 80.5,277.7 80.9,278.4 80.9,278.4 80.9,278.4 81.6,278.2 81.1,278.8 81.1,278.8 "/>
<polygon class="st5" points="77.9,283.3 78.3,284 77.6,283.7 77.6,283.7 77.6,283.7 77,284.3 77.1,283.5 77.1,283.5 77.1,283.5 
	76.4,283.2 77.2,283 77.2,282.2 77.6,282.9 77.6,282.9 77.6,282.9 78.4,282.8 77.8,283.3 77.8,283.3 "/>
<polygon class="st5" points="78.6,287.1 79,287.8 78.3,287.5 78.3,287.5 78.3,287.5 77.8,288 77.9,287.3 77.9,287.2 77.9,287.3 
	77.2,287 77.9,286.8 78,286 78.4,286.7 78.4,286.7 78.4,286.7 79.2,286.6 78.6,287.1 78.6,287.1 "/>
<polygon class="st5" points="79.4,290.9 79.8,291.6 79.1,291.2 79.1,291.2 79.1,291.2 78.6,291.8 78.7,291 78.7,291 78.7,291 
	78,290.7 78.7,290.6 78.8,289.8 79.2,290.5 79.2,290.5 79.2,290.5 79.9,290.3 79.4,290.9 79.4,290.9 "/>
<polygon class="st5" points="80.2,294.7 80.6,295.4 79.9,295 79.8,295 79.8,295 79.3,295.6 79.4,294.8 79.4,294.8 79.4,294.8 
	78.7,294.5 79.5,294.4 79.6,293.6 79.9,294.3 79.9,294.3 79.9,294.3 80.7,294.1 80.2,294.7 80.2,294.7 "/>
<polygon class="st5" points="77.1,279.6 77.5,280.2 76.8,279.9 76.8,279.9 76.8,279.9 76.3,280.5 76.4,279.7 76.4,279.7 76.4,279.7 
	75.7,279.4 76.4,279.3 76.5,278.5 76.9,279.2 76.9,279.2 76.9,279.2 77.6,279 77.1,279.6 77.1,279.6 "/>
<polygon class="st5" points="73.9,284.1 74.3,284.8 73.6,284.5 73.6,284.5 73.6,284.5 73.1,285 73.2,284.3 73.2,284.3 73.2,284.3 
	72.5,284 73.3,283.8 73.3,283 73.7,283.7 73.7,283.7 73.7,283.7 74.5,283.6 73.9,284.1 73.9,284.1 "/>
<polygon class="st5" points="74.7,287.9 75.1,288.6 74.4,288.2 74.4,288.2 74.4,288.2 73.9,288.8 74,288.1 74,288 74,288 
	73.3,287.8 74,287.6 74.1,286.8 74.5,287.5 74.5,287.5 74.5,287.5 75.2,287.4 74.7,287.9 74.7,287.9 "/>
<polygon class="st5" points="75.5,291.7 75.9,292.4 75.2,292 75.2,292 75.2,292 74.7,292.6 74.8,291.8 74.8,291.8 74.8,291.8 
	74.1,291.5 74.8,291.4 74.9,290.6 75.2,291.3 75.2,291.3 75.2,291.3 76,291.1 75.5,291.7 75.5,291.7 "/>
<polygon class="st5" points="76.2,295.5 76.7,296.1 75.9,295.8 75.9,295.8 75.9,295.8 75.4,296.4 75.5,295.6 75.5,295.6 75.5,295.6 
	74.8,295.3 75.6,295.2 75.6,294.4 76,295.1 76,295.1 76,295.1 76.8,294.9 76.2,295.5 76.2,295.5 "/>
<polygon class="st5" points="73.2,280.4 73.6,281 72.9,280.7 72.9,280.7 72.9,280.7 72.4,281.3 72.5,280.5 72.5,280.5 72.5,280.5 
	71.8,280.2 72.5,280.1 72.6,279.3 72.9,280 72.9,280 73,280 73.7,279.8 73.2,280.4 73.2,280.4 "/>
<polygon class="st5" points="70,284.9 70.4,285.6 69.7,285.3 69.7,285.3 69.7,285.3 69.1,285.9 69.2,285.1 69.3,285.1 69.3,285.1 
	68.5,284.8 69.3,284.6 69.4,283.9 69.7,284.5 69.7,284.5 69.7,284.5 70.5,284.4 70,284.9 70,284.9 "/>
<polygon class="st5" points="70.7,288.7 71.1,289.4 70.4,289.1 70.4,289.1 70.4,289.1 69.9,289.6 70,288.9 70,288.9 70,288.9 
	69.3,288.6 70.1,288.4 70.1,287.6 70.5,288.3 70.5,288.3 70.5,288.3 71.3,288.2 70.7,288.7 70.7,288.7 "/>
<polygon class="st5" points="71.5,292.5 71.9,293.2 71.2,292.8 71.2,292.8 71.2,292.8 70.7,293.4 70.8,292.6 70.8,292.6 70.8,292.6 
	70.1,292.3 70.8,292.2 70.9,291.4 71.3,292.1 71.3,292.1 71.3,292.1 72,291.9 71.5,292.5 71.5,292.5 "/>
<polygon class="st5" points="72.3,296.3 72.7,297 72,296.6 72,296.6 72,296.6 71.4,297.2 71.6,296.4 71.6,296.4 71.6,296.4 
	70.8,296.1 71.6,296 71.7,295.2 72,295.9 72,295.9 72,295.9 72.8,295.7 72.3,296.3 72.3,296.3 "/>
<polygon class="st5" points="69.2,281.2 69.6,281.9 68.9,281.5 68.9,281.5 68.9,281.5 68.4,282.1 68.5,281.3 68.5,281.3 68.5,281.3 
	67.8,281 68.5,280.9 68.6,280.1 69,280.8 69,280.8 69,280.8 69.8,280.6 69.2,281.2 69.2,281.2 "/>
<polygon class="st10" points="275.6,265.7 275.6,265.7 275.4,261.9 281,261.6 281.2,265.4 283,265.3 282.8,261.5 288.4,261.2 
	288.5,265 290.4,264.9 290.2,261.1 295.7,260.8 295.9,264.6 297.8,264.5 297.5,260.7 303.1,260.4 303.3,264.2 305.1,264.1 
	304.9,260.3 310.5,260 310.7,264.4 315.4,323.8 274.9,326 "/>
<path class="st11" d="M284.8,275.2l-4,0.2l-0.2-3.3c-0.1-0.9,0.6-1.6,1.4-1.6c0,0,0,0,0,0l0.9,0c0.9-0.1,1.6,0.6,1.6,1.4
	c0,0,0,0,0,0L284.8,275.2z"/>
<path class="st11" d="M292.3,274.8l-4,0.2l-0.2-3.3c-0.1-0.9,0.6-1.6,1.4-1.6c0,0,0,0,0,0l0.9,0c0.9-0.1,1.6,0.6,1.6,1.5
	c0,0,0,0,0,0L292.3,274.8z"/>
<path class="st11" d="M299.7,274.4l-4,0.2l-0.2-3.3c0-0.9,0.6-1.6,1.5-1.6l0.9,0c0.9-0.1,1.6,0.6,1.6,1.5c0,0,0,0,0,0L299.7,274.4z"
	/>
<path class="st11" d="M307.3,276l-4,0.2l-0.3-5.4c-0.1-0.9,0.6-1.6,1.5-1.7c0,0,0,0,0,0l0.9,0c0.9,0,1.6,0.6,1.6,1.5L307.3,276z"/>
<path class="st1" d="M484.9,246.9l-4.3-0.2l-60-3.1c-1.7-0.1-3.1-1.5-3-3.3c0,0,0,0,0,0l0.8-14.5c0-0.2,0-0.4,0-0.6l0.6-11.1
	c0-0.2,0-0.4,0.1-0.6l0.7-13.7c0.1-1.7,1.4-3,3.1-3c0.3,0,0.6,0,0.9,0.1l63.5,3.3c1.7,0.1,3.1,1.5,3,3.2v0.9c0,0.1,0,0.3,0,0.4
	l-0.6,12.5c0,0.2,0,0.3,0,0.5l-0.7,11.1c0,0.2,0,0.3-0.1,0.5l-0.7,14.1c0,0.1,0,0.2,0,0.3v0.1c0,0.8-0.4,1.6-1,2.2
	c-0.6,0.5-1.3,0.8-2.1,0.8H484.9z"/>
<path class="st2" d="M422.9,200.1L422.9,200.1l0.2,0.1l64.1,3.3v0.9l0,0l-0.7,13.3l0,0l-0.6,11l0,0l-0.8,14.9l0,0v0.1l-4.3-0.2
	l-60-3.1l0.8-15.1h-0.1l0.6-11h0.1L422.9,200.1 M422.9,193.7c-3.3,0-6.1,2.6-6.2,5.9l-0.7,13.5c-0.1,0.3-0.1,0.6-0.1,0.9l-0.6,11.1
	c0,0.3,0,0.6,0,0.9l-0.7,14.2c-0.2,3.4,2.5,6.4,5.9,6.6c0,0,0,0,0,0l60,3.1l4.3,0.2h0.4c3.3,0,6.1-2.6,6.2-5.9V244
	c0-0.2,0-0.3,0-0.5l0.7-13.8c0-0.2,0.1-0.5,0.1-0.7l0.6-11c0-0.2,0-0.5,0-0.7l0.6-12.1c0-0.2,0-0.4,0-0.6v-0.9
	c0.1-3.4-2.5-6.3-5.9-6.4l-63.1-3.3C423.9,193.9,423.4,193.8,422.9,193.7L422.9,193.7z"/>
<polygon class="st6" points="487.2,203.5 485.1,243.8 485.1,243.8 420.8,240.4 422.9,200.2 "/>
<polygon class="st8" points="485.3,239.6 485.1,243.8 485.1,243.8 478.4,243.4 459.3,230 457.4,228.7 455.2,227.1 454.4,226.6 
	452.1,225 451.2,224.4 450.5,223.9 449.1,222.9 448.6,222.5 447.9,222 441.1,217.3 438.1,215.1 422.7,204.4 422.9,200.2 423,200.1 
	423.1,200.2 429.6,200.5 449.1,214.1 451,215.5 451.5,215.8 454.5,218 454.8,218.2 456,219 457.8,220.3 458.2,220.5 459.8,221.6 
	461.3,222.7 465.5,225.7 468.5,227.8 "/>
<polygon class="st7" points="485.1,243.6 485.1,243.8 480.8,243.5 459.4,228.5 457.6,227.2 457.5,227.2 455.6,225.9 454.5,225.1 
	452.5,223.7 450.6,222.4 450.4,222.2 449.2,221.3 448.7,221 443.6,217.4 440.5,215.3 422.8,202.8 422.9,200.1 423,200.1 
	423.1,200.2 445,215.5 448,217.6 448.9,218.2 450.8,219.6 451.5,220.1 452.6,220.9 454.8,222.4 457.6,224.4 458,224.6 459,225.3 
	459.5,225.7 462,227.5 "/>
<polygon class="st8" points="487.1,204.3 486.9,208.5 471.8,216.9 468.5,218.7 461.3,222.7 459.6,223.6 458,224.6 457.6,224.8 
	456.9,225.2 455.6,225.9 454.4,226.6 453.6,227 450.3,228.9 448.2,230 428.8,240.9 420.8,240.4 421,237 440.2,226.3 443.5,224.5 
	447.9,222 448.7,221.6 449.2,221.3 450.7,220.5 451.5,220.1 454.8,218.2 455.2,218 458,216.4 458.4,216.2 460.1,215.3 481.8,203.2 
	486.7,203.4 "/>
<polygon class="st7" points="487,204.5 465.3,216.6 462,218.4 459.9,219.6 458.2,220.5 457.8,220.7 454.8,222.4 452.5,223.7 
	451.2,224.4 450.5,224.8 450.3,224.9 448.5,225.9 447.1,226.7 422.3,240.5 420.8,240.4 420.9,238.6 442.6,226.5 445.9,224.6 
	448.6,223.1 449.1,222.9 450.4,222.2 450.6,222 452.6,220.9 456,219 457.6,218.1 458,217.9 460,216.8 460.8,216.3 484.1,203.3 
	486.4,203.4 487.2,203.5 487.1,204.4 "/>
<rect x="448" y="188.3" transform="matrix(4.993762e-02 -0.9988 0.9988 4.993762e-02 210.6702 662.5473)" class="st5" width="11.1" height="64.5"/>
<rect x="450.5" y="189.3" transform="matrix(5.163875e-02 -0.9987 0.9987 5.163875e-02 209.3703 663.504)" class="st7" width="7.1" height="64.4"/>
<rect x="434" y="218.4" transform="matrix(5.163875e-02 -0.9987 0.9987 5.163875e-02 209.0813 664.1082)" class="st9" width="40.3" height="7.1"/>
<polygon class="st5" points="457.5,227.2 459.4,227.3 458.7,242.4 447.6,241.8 448.4,226.8 450.4,226.9 450.9,215.8 449,215.7 
	449.7,201.5 460.8,202.1 460,216.3 458,216.2 "/>
<rect x="434" y="218.4" transform="matrix(5.163875e-02 -0.9987 0.9987 5.163875e-02 209.0564 664.1015)" class="st7" width="40.3" height="7.2"/>
<line class="st0" x1="418.9" y1="221.4" x2="414.4" y2="299.5"/>
<polygon class="st12" points="377.9,293.3 378,296.2 376.6,296 376.4,293 371.9,292.3 372.1,295.2 370.6,295 370.4,292 366,291.3 
	366.1,294.2 364.6,294 364.5,291.1 360,290.3 360.2,293.3 358.7,293 358.5,290.1 354.1,289.4 354.2,292.3 352.8,292 352.6,289.1 
	348.2,288.4 348.3,291.3 346.9,291.1 346.7,288.1 342.3,287.4 342.4,290.3 341,290.1 340.8,287.2 336.4,286.5 336.5,289.4 
	335.1,289.1 334.9,286.2 330.5,285.5 330.6,288.4 329.2,288.2 329,285.2 324.6,284.5 324.8,287.4 323.3,287.2 323.2,284.3 
	318.8,283.6 318.9,286.5 317.5,286.2 317.3,283.3 312.9,282.6 313.1,285.5 311.6,285.3 311.5,282.4 307.1,281.6 307.2,284.5 
	305.8,284.3 305.6,281.4 301.2,280.7 301.4,283.6 300,283.4 299.8,280.5 295.4,279.7 295.6,282.6 295.6,283.2 297.4,315.7 
	384.4,330.1 382.6,297.5 382.5,296.9 382.4,294 "/>
<polygon class="st10" points="373.4,345.7 373.6,276.9 373.4,271.7 379.9,271.4 380.2,275.9 382.3,275.8 382.1,271.2 388.7,270.9 
	388.9,275.4 391.1,275.3 390.9,270.8 397.4,270.4 397.7,275 399.8,274.8 399.6,270.3 406.2,269.9 406.4,274.5 408.6,274.3 
	408.3,269.8 414.9,269.5 415.2,274.3 421.6,343.1 "/>
<path class="st11" d="M405.6,286.3l4.8-0.3l-0.2-4c-0.1-1-0.9-1.8-2-1.8c0,0,0,0,0,0l-1.1,0.1c-1,0.1-1.8,0.9-1.8,2c0,0,0,0,0,0
	L405.6,286.3z"/>
<path class="st11" d="M396.7,286.8l4.8-0.3l-0.2-4c-0.1-1-0.9-1.8-2-1.8c0,0,0,0,0,0l-1.1,0.1c-1,0.1-1.8,0.9-1.8,2c0,0,0,0,0,0
	L396.7,286.8z"/>
<path class="st11" d="M387.9,287.3l4.8-0.3l-0.2-4c-0.1-1-0.9-1.8-1.9-1.8c0,0,0,0,0,0l-1.1,0.1c-1,0.1-1.8,0.9-1.8,1.9c0,0,0,0,0,0
	L387.9,287.3z"/>
<path class="st11" d="M379.1,290.2l4.8-0.3l-0.4-6.4c-0.1-1-0.9-1.8-2-1.8c0,0,0,0,0,0l-1.1,0.1c-1,0.1-1.8,0.9-1.8,2c0,0,0,0,0,0
	L379.1,290.2z"/>
<path class="st16" d="M378,447.3c0.2,3.3-2.3,6-5.6,6.2s-6-2.3-6.2-5.6s2.3-6,5.6-6.2c0.1,0,0.1,0,0.2,0
	C375.2,441.6,377.9,444.1,378,447.3C378,447.3,378,447.3,378,447.3z M367.6,447.5c0,2.5,2,4.5,4.4,4.5c0.1,0,0.1,0,0.2,0
	c2.4-0.1,4.3-2.1,4.3-4.5c0,0,0-0.1,0-0.1c0.1-2.5-1.9-4.5-4.3-4.5s-4.5,1.9-4.5,4.3C367.6,447.3,367.6,447.4,367.6,447.5z
	 M371.3,450.5h-1.3l-0.1-5.8c0.7-0.1,1.5-0.2,2.2-0.2c0.7-0.1,1.4,0.1,2,0.4c0.4,0.3,0.6,0.8,0.6,1.2c0,0.7-0.5,1.2-1.2,1.4v0.1
	c0.6,0.2,1,0.8,1.1,1.4c0.1,0.5,0.2,1,0.5,1.4h-1.4c-0.2-0.4-0.4-0.9-0.5-1.4c-0.1-0.6-0.5-0.9-1.2-0.9h-0.6L371.3,450.5z
	 M371.3,447.2h0.6c0.7,0,1.3-0.3,1.3-0.9s-0.4-0.9-1.2-0.9c-0.2,0-0.5,0-0.7,0.1L371.3,447.2z"/>
<ellipse transform="matrix(0.9985 -5.477591e-02 5.477591e-02 0.9985 -20.4943 7.4015)" class="st13" cx="124.8" cy="377.6" rx="44.3" ry="30.3"/>
<polygon class="st12" points="373.5,293.6 366.2,295.3 366.5,300.3 363.3,301 363.1,296 353.5,298.2 353.8,303.2 350.6,303.9 
	350.4,298.9 340.8,301.1 341.1,306.1 337.9,306.8 337.7,301.8 328.1,304 328.3,309 325.2,309.8 324.9,304.7 315.3,306.9 
	315.6,311.9 312.4,312.7 312.1,307.6 302.5,309.9 302.8,314.9 299.6,315.6 299.3,310.6 289.7,312.8 289.9,317.8 286.8,318.5 
	286.5,313.5 276.8,315.7 277.1,320.7 273.9,321.5 273.7,316.4 264,318.6 264.2,323.7 261.1,324.4 260.8,319.4 251.1,321.6 
	251.3,326.6 248.2,327.3 247.9,322.3 238.1,324.5 238.4,329.6 235.2,330.3 234.9,325.2 225.2,327.5 225.5,332.5 222.3,333.3 
	222,328.2 212.2,330.4 214.6,374.6 375.9,337.6 "/>
<path class="st13" d="M438.9,408.6c-17.9,0.9-33.8-4.7-41.7-13.4c-7.8,7.3-20.9,12.5-36.1,13.2c-18.6,0.9-35-5.1-42.5-14.5
	c-6.9,2.6-14.2,4.1-21.5,4.4c-25.1,1.2-46.3-10.1-47.2-25.3s18.7-28.5,43.8-29.7c9.8-0.6,19.6,1,28.8,4.6
	c4.4-7.9,16.4-13.9,30.8-14.6c14-0.7,26.2,3.8,31.9,10.8c5.2,0.7,10.2,2,15,4c4.5-7.9,16.4-13.9,30.9-14.6
	c18.8-0.9,34.5,7.5,35.2,18.9c0.1,2.2-0.3,4.5-1.3,6.5c10.2,4.5,17,11.7,17.5,20.1C483.4,394.2,463.9,407.4,438.9,408.6z"/>
<polygon class="st10" points="364.9,413.3 374.5,345.4 375,337.1 386.8,337.8 386.3,345.9 390.2,346.1 390.6,338 402.4,338.6 
	401.9,346.7 405.8,346.9 406.2,338.8 418,339.5 417.5,347.6 421.4,347.8 421.9,339.7 433.6,340.3 433.2,348.4 437,348.6 
	437.5,340.6 449.2,341.2 448.7,351 450.8,418 "/>
<path class="st11" d="M391.7,367.2l-8.6-0.5l0.4-7.1c0.1-1.8,1.7-3.2,3.5-3.1l1.9,0.1c1.8,0.1,3.2,1.7,3.1,3.5c0,0,0,0,0,0
	L391.7,367.2z"/>
<path class="st11" d="M407.5,368.1l-8.6-0.5l0.4-7.1c0.1-1.8,1.7-3.2,3.5-3.1c0,0,0,0,0,0l1.9,0.1c1.8,0.1,3.2,1.7,3.1,3.5
	L407.5,368.1z"/>
<path class="st11" d="M423.3,369l-8.6-0.5l0.4-7.1c0.1-1.8,1.7-3.2,3.5-3.1c0,0,0,0,0,0l1.9,0.1c1.8,0.1,3.2,1.7,3.1,3.5L423.3,369z
	"/>
<path class="st11" d="M438.9,374.2l-8.6-0.5l0.7-11.4c0.1-1.8,1.7-3.2,3.5-3.1c0,0,0,0,0,0l1.9,0.1c1.8,0.1,3.2,1.7,3.1,3.5
	c0,0,0,0,0,0L438.9,374.2z"/>
<polygon class="st12" points="394.6,411.7 394.7,412.4 208.5,392 205.7,352.5 220.1,354.1 220.5,360.6 225.2,361.1 224.8,354.6 
	239.1,356.1 239.6,362.7 244.3,363.2 243.9,356.6 258.3,358.2 258.8,364.8 263.5,365.3 263,358.7 265.8,359 265.7,358.3 
	280.1,359.9 280.5,366.5 282.6,366.7 282.2,360.8 284.8,361.1 284.8,360.4 299.2,362 299.6,368.6 301.8,368.8 301.4,362.9 
	303.9,363.2 303.9,362.5 318.3,364 318.8,370.6 321,370.9 320.6,365 323.1,365.2 323,364.6 337.5,366.1 337.9,372.7 340.3,373 
	339.9,367.1 342.2,367.3 342.2,366.6 356.6,368.2 357.1,374.8 359.6,375.1 359.2,369.2 361.4,369.4 361.4,368.7 375.8,370.3 
	376.3,376.9 379,377.2 378.6,371.3 380.6,371.5 380.6,370.8 395.1,372.4 395.6,379 400.4,379.5 399.9,372.9 414.4,374.5 
	414.9,381.1 419.7,381.6 419.2,375 433.8,376.6 434.3,383.2 439,383.8 438.6,377.1 451.9,378.6 454.7,418.3 "/>
<polygon class="st10" points="152.1,394.8 154.2,326.3 153.8,318 165.6,317.4 166,325.4 169.9,325.2 169.4,317.1 181.2,316.5 
	181.6,324.6 185.5,324.4 185,316.3 196.8,315.6 197.2,323.7 201.1,323.5 200.6,315.4 212.4,314.8 212.8,322.9 216.7,322.6 
	216.2,314.6 228,313.9 228.6,323.7 238,390.1 "/>
<path class="st11" d="M173.7,346.1l-8.6,0.5l-0.4-7.1c-0.1-1.8,1.3-3.4,3.1-3.5c0,0,0,0,0,0l1.9-0.1c1.8-0.1,3.4,1.3,3.5,3.1
	L173.7,346.1z"/>
<path class="st11" d="M189.5,345.2l-8.6,0.5l-0.4-7.1c-0.1-1.8,1.3-3.4,3.1-3.5l1.9-0.1c1.8-0.1,3.4,1.3,3.5,3.1L189.5,345.2z"/>
<path class="st11" d="M205.3,344.4l-8.6,0.5l-0.4-7.1c-0.1-1.8,1.3-3.4,3.1-3.5l1.9-0.1c1.8-0.1,3.4,1.3,3.5,3.1c0,0,0,0,0,0
	L205.3,344.4z"/>
<path class="st11" d="M221.4,347.8l-8.6,0.5l-0.6-11.4c-0.1-1.8,1.3-3.4,3.1-3.5l1.9-0.1c1.8-0.1,3.4,1.3,3.5,3.1c0,0,0,0,0,0
	L221.4,347.8z"/>
<path class="st13" d="M465.3,407c0.8,12.8-25.1,24.5-57.7,26.1c-15.5,0.8-66.4,4.2-112.2,1.6c-57,2.3-158.9,2.8-160.8-29.5
	c-1-16.8,30.7-32,70.9-34c17.7-0.9,34.1,1,47.1,4.8c10.6-2.7,21.4-4.3,32.3-4.8c31.7-1.5,59.2,5.6,69.9,17
	c5.5,0.9,10.9,2.3,16.1,4.3c11-3.5,22.4-5.5,33.9-5.9C437.4,385,464.5,394.1,465.3,407z"/>
</svg>
