<svg xmlns="http://www.w3.org/2000/svg" viewBox="0 0 451.63 269.04"><defs><style>.cls-1{fill:none;}.cls-1,.cls-11,.cls-12,.cls-13,.cls-14,.cls-17{stroke:#333;}.cls-1,.cls-11,.cls-13,.cls-14,.cls-17{stroke-linecap:round;stroke-linejoin:round;}.cls-1,.cls-11,.cls-13,.cls-14{stroke-width:6.26px;}.cls-14,.cls-17,.cls-2{fill:#5e897a;}.cls-12,.cls-3{fill:#333;}.cls-4{fill:#00b047;}.cls-5{fill:#ffaa0e;}.cls-6{fill:#fff;}.cls-7{fill:#194396;}.cls-8{fill:#ff2020;}.cls-9{fill:#fff4ff;}.cls-10{fill:#ee0026;}.cls-11{fill:#f1c390;}.cls-12{stroke-miterlimit:10;stroke-width:0.24px;}.cls-13{fill:#e7d4bf;}.cls-15{fill:#ff3844;}.cls-16{fill:#fd2a2a;}.cls-17{stroke-width:6.26px;}</style></defs><title>Asset 1</title><g id="Layer_2" data-name="Layer 2"><g id="Capa_1" data-name="Capa 1"><line class="cls-1" x1="122.43" y1="27.2" x2="131.13" y2="104"/><path class="cls-2" d="M58.43,59.4a3,3,0,0,1-3.1-2.7l-5.8-39.9a3,3,0,0,1,2.6-3.5h0L115.73,4h.4a3,3,0,0,1,3.1,2.7l5.9,39.9a3.23,3.23,0,0,1-2.6,3.6l-63.6,9.3A.75.75,0,0,1,58.43,59.4Z"/><path class="cls-3" d="M116.13,7.1,122,47l-63.6,9.3-5.9-39.9,63.6-9.3m0-6.2a2.77,2.77,0,0,0-.9.1l-63.6,9.3a6.3,6.3,0,0,0-5.3,7.1l5.9,39.9a6.25,6.25,0,0,0,6.2,5.4,2.77,2.77,0,0,0,.9-.1l63.6-9.4a6.3,6.3,0,0,0,5.3-7.1h0l-5.9-39.9a6,6,0,0,0-6.2-5.3Z"/><rect class="cls-4" x="55.12" y="11.51" width="64.3" height="40.3" transform="translate(-3.67 13.01) rotate(-8.35)"/><rect class="cls-5" x="88.32" y="9.11" width="30.9" height="40.3" transform="translate(-3.15 15.38) rotate(-8.35)"/><rect class="cls-6" x="76.53" y="11.6" width="21.7" height="40.1" transform="translate(-3.67 13.02) rotate(-8.35)"/><path class="cls-2" d="M266.53,54.2a3.15,3.15,0,0,1-3.1-2.9L260.63,11a3.12,3.12,0,0,1,2.9-3.3h0l64.4-4.5h.2a3.15,3.15,0,0,1,3.1,2.9L334,46.4a3.12,3.12,0,0,1-2.9,3.3l-64.5,4.5Z"/><path class="cls-3" d="M328.13,6.3l2.8,40.3-64.4,4.5-2.8-40.3,64.4-4.5m0-6.3h-.4l-64.4,4.5a6.14,6.14,0,0,0-5.8,6.7l2.8,40.3a6.22,6.22,0,0,0,6.2,5.8h.4l64.4-4.5a6.14,6.14,0,0,0,5.8-6.7l-2.8-40.3A6.23,6.23,0,0,0,328.13,0Z"/><line class="cls-1" x1="261.13" y1="14.9" x2="265.83" y2="105.3"/><rect class="cls-7" x="264.54" y="8.5" width="65.1" height="40.5" transform="matrix(1, -0.07, 0.07, 1, -1.28, 20.71)"/><polygon class="cls-8" points="307.93 24.8 309.03 27.3 306.73 25.9 306.73 25.8 306.73 25.9 304.63 27.6 305.33 25 305.33 25 305.33 25 303.03 23.6 305.73 23.4 306.23 20.8 307.33 23.3 307.33 23.3 307.33 23.3 310.03 23.1 307.93 24.8 307.83 24.8 307.93 24.8"/><path class="cls-6" d="M309.33,27.7l-2.6-1.7-2.4,2,.8-3-2.7-1.6,3.1-.2.6-3,1.2,2.9,3.1-.2-2.5,1.9Zm-3.8-2.6-.6,2.1,1.6-1.4.1-.5.2.5,1.9,1.2-.9-2-.4-.2.4-.1,1.7-1.4-2.2.2-.4.2.2-.4-.8-2-.5,2.3-2.3.2,1.9,1.1h.5Z"/><polygon class="cls-8" points="314.93 16.7 316.03 19.3 313.73 17.8 313.73 17.8 313.73 17.8 311.63 19.6 312.33 16.9 312.33 16.9 312.33 16.9 310.03 15.5 312.73 15.4 313.23 12.7 314.33 15.2 314.33 15.2 314.33 15.2 317.03 15 314.83 16.7 314.83 16.7 314.93 16.7"/><path class="cls-6" d="M316.33,19.7l-2.6-1.7-2.4,2,.8-3-2.7-1.6,3.1-.2.6-3,1.2,2.9,3.1-.2L315,16.8Zm-3.8-2.7-.6,2.1,1.7-1.4.1-.5.2.5,1.8,1.2-.9-2-.4-.2h.4l1.7-1.4-2.2.2-.3.2.1-.3-.8-2-.5,2.3-2.3.1,1.9,1.1h.5Z"/><polygon class="cls-8" points="316.83 40.7 318.23 43.7 315.43 42 315.43 41.9 315.43 42 312.93 44.1 313.73 40.9 313.83 40.9 313.83 40.9 310.93 39.2 314.23 39 314.93 35.8 316.13 38.9 316.13 38.9 316.13 38.9 319.43 38.6 316.83 40.7 316.83 40.7"/><path class="cls-6" d="M318.53,44.1l-3.1-2-2.8,2.4,1-3.6-3.2-1.8,3.7-.2.8-3.6,1.4,3.4,3.7-.3-2.9,2.3Zm-4.6-3.1-.7,2.7,2.1-1.8.1-.4.2.4,2.3,1.5-1.1-2.5-.4-.2.4-.1,2.2-1.7-2.8.2-.3.1.1-.3-1-2.6-.6,2.8-2.9.2,2.4,1.4h.4Z"/><polygon class="cls-8" points="322.93 23.7 324.03 26.2 321.73 24.8 321.73 24.7 321.73 24.8 319.63 26.5 320.33 23.9 320.33 23.9 320.33 23.9 318.03 22.5 320.73 22.3 321.23 19.6 322.33 22.2 322.33 22.2 322.33 22.2 325.03 22 322.93 23.7 322.83 23.7 322.93 23.7"/><path class="cls-6" d="M319.33,27l.8-3-2.7-1.6,3.1-.2.6-3,1.2,2.9,3.1-.2-2.5,1.9,1.3,2.9-2.6-1.8Zm2.5-2.3,1.8,1.2-.9-2-.4-.2.5-.1,1.7-1.4-2.2.2-.4.3.2-.4-.8-2-.5,2.3-2.3.2,1.9,1.1h.5l-.4.3-.6,2.1,1.7-1.4.1-.4Z"/><polygon class="cls-7" points="295.53 8.7 296.93 28.6 296.93 28.6 265.23 30.8 263.83 10.9 295.53 8.7"/><polygon class="cls-9" points="296.73 26.5 296.93 28.6 296.93 28.6 293.63 28.8 283.43 23.4 282.43 22.9 281.23 22.2 280.83 22 279.63 21.4 279.13 21.1 278.73 20.9 278.03 20.5 277.73 20.4 277.33 20.2 273.73 18.2 272.13 17.4 263.93 13 263.83 10.9 263.83 10.9 263.93 10.9 267.13 10.7 277.43 16.2 278.53 16.8 278.73 16.9 280.33 17.8 280.53 17.9 281.13 18.2 282.13 18.7 282.33 18.8 283.13 19.3 283.93 19.7 286.23 20.9 287.83 21.8 296.73 26.5"/><polygon class="cls-8" points="296.93 28.5 296.93 28.6 294.83 28.7 283.43 22.7 282.43 22.1 282.33 22.1 281.43 21.6 280.83 21.3 279.73 20.7 278.73 20.2 278.53 20.1 277.93 19.8 277.73 19.6 274.93 18.2 273.33 17.3 263.93 12.3 263.83 10.9 263.83 10.9 263.93 10.9 275.53 17.1 277.13 18 277.63 18.2 278.63 18.8 279.03 19 279.63 19.3 280.73 19.9 282.23 20.7 282.43 20.8 283.03 21.1 283.33 21.3 284.63 22 296.93 28.5"/><polygon class="cls-9" points="295.53 9.1 295.73 11.2 288.73 16.2 287.33 17.3 283.93 19.7 283.23 20.3 282.43 20.8 282.33 20.9 281.93 21.2 281.43 21.6 280.83 22 280.43 22.3 278.93 23.4 278.03 24.1 269.13 30.5 265.23 30.8 265.13 29.1 273.83 22.7 275.33 21.7 277.33 20.2 277.73 19.9 277.93 19.8 278.63 19.2 279.03 19 280.53 17.9 280.73 17.8 282.03 16.8 282.13 16.7 282.93 16.1 292.83 8.9 295.23 8.7 295.53 9.1"/><polygon class="cls-8" points="295.43 9.2 285.53 16.4 284.03 17.5 283.13 18.2 282.33 18.8 282.13 18.9 280.73 19.9 279.73 20.7 279.13 21.1 278.83 21.4 278.73 21.4 277.83 22.1 277.23 22.5 265.93 30.8 265.23 30.8 265.13 29.9 275.03 22.7 276.53 21.6 277.73 20.7 278.03 20.5 278.53 20.1 278.73 20 279.63 19.3 281.13 18.2 281.83 17.7 282.03 17.6 282.93 16.9 283.33 16.6 294.03 8.8 295.13 8.7 295.53 8.7 295.53 9.1 295.43 9.2"/><rect class="cls-6" x="264.42" y="16.79" width="31.8" height="5.5" transform="translate(-0.68 19.75) rotate(-4.03)"/><rect class="cls-8" x="264.42" y="17.79" width="31.8" height="3.5" transform="translate(-0.68 19.75) rotate(-4.03)"/><rect class="cls-10" x="278.72" y="9.79" width="3.5" height="19.9" transform="translate(-0.69 19.76) rotate(-4.03)"/><polygon class="cls-6" points="282.33 22.1 283.33 22.1 283.83 29.5 278.43 29.9 277.93 22.5 278.83 22.4 278.53 16.9 277.53 17 277.03 10 282.43 9.6 282.93 16.6 281.93 16.7 282.33 22.1"/><rect class="cls-8" x="278.62" y="9.8" width="3.5" height="19.9" transform="translate(-0.69 19.75) rotate(-4.03)"/><polygon class="cls-11" points="111.83 67.6 111.83 67.6 111.63 63.7 117.23 63.4 117.43 67.2 119.23 67.2 119.03 63.4 124.63 63 124.83 66.9 126.63 66.8 126.43 62.9 131.93 62.6 132.23 66.5 134.03 66.4 133.83 62.5 139.33 62.2 139.53 66 141.43 65.9 141.13 62.1 146.73 61.8 146.93 66.3 151.43 97.8 110.83 100.1 111.83 67.6"/><path class="cls-12" d="M121,77l-4,.2-.2-3.4a1.44,1.44,0,0,1,1.5-1.6h.9a1.5,1.5,0,0,1,1.6,1.5Z"/><path class="cls-12" d="M128.53,76.6l-4,.2-.2-3.4a1.5,1.5,0,0,1,1.5-1.6h.9a1.5,1.5,0,0,1,1.6,1.5Z"/><path class="cls-12" d="M136,76.2l-4,.2-.2-3.4a1.5,1.5,0,0,1,1.5-1.6h.9a1.42,1.42,0,0,1,1.6,1.4h0Z"/><path class="cls-12" d="M143.63,77.8l-4,.2-.3-5.4a1.57,1.57,0,0,1,1.4-1.7h.9a1.5,1.5,0,0,1,1.6,1.5Z"/><polygon class="cls-13" points="219.23 89.5 219.33 92.4 217.83 92.2 217.73 89.2 213.23 88.5 213.33 91.4 211.93 91.2 211.73 88.3 207.23 87.5 207.43 90.5 205.93 90.2 205.83 87.3 201.33 86.5 201.53 89.5 200.03 89.2 199.83 86.3 195.33 85.6 195.53 88.5 194.13 88.3 193.93 85.3 189.53 84.6 189.63 87.5 188.13 87.3 188.03 84.4 183.53 83.6 183.73 86.6 182.23 86.3 182.13 83.4 177.63 82.7 177.83 85.6 176.33 85.4 176.23 82.4 171.83 81.7 171.93 84.6 170.53 84.4 170.33 81.5 165.93 80.7 166.03 83.6 164.63 83.4 164.53 80.5 160.03 79.8 160.23 82.7 158.83 82.5 158.63 79.5 154.23 78.8 154.33 81.7 152.93 81.5 152.73 78.6 148.33 77.9 148.53 80.8 147.13 80.5 146.93 77.6 142.53 76.9 142.73 79.8 141.23 79.6 141.13 76.7 136.73 76 136.93 78.9 136.93 79.4 138.73 111.9 225.63 126.3 223.83 93.7 223.83 93.2 223.73 90.2 219.23 89.5"/><path class="cls-14" d="M248.53,120.5c.7,12.8-13.9,24.1-32.7,25.1a47,47,0,0,1-17.9-2.4c-9.2,10.2-25.1,17.5-43.6,18.5a71.3,71.3,0,0,1-34.1-6.2,47.8,47.8,0,0,1-15.3,3.4c-18.8,1-34.5-8.5-35.2-21.4s13.9-24.1,32.7-25.1h0c7.7-13.3,26.1-23.2,47.9-24.4,19.4-1.1,36.7,5,46.8,15a47.36,47.36,0,0,1,16.2-3.8C232,98.1,247.83,107.6,248.53,120.5Z"/><path class="cls-12" d="M249.83,100.2l4.8-.3-.4-6.4a2,2,0,0,0-2-1.8h0l-1.1.1a2,2,0,0,0-1.8,2h0Z"/><path class="cls-2" d="M438.83,138.6h-.5l-63.7-10.7a3.15,3.15,0,0,1-2.6-3.6h0l6.7-39.9a3.25,3.25,0,0,1,3.1-2.6h.5L446,92.5a3.15,3.15,0,0,1,2.6,3.6h0l-6.7,39.8a3.36,3.36,0,0,1-1.3,2A2.57,2.57,0,0,1,438.83,138.6Z"/><path class="cls-3" d="M381.83,85l63.7,10.7-6.7,39.8-63.7-10.7,6.7-39.8m0-6.3a6.24,6.24,0,0,0-6.2,5.2l-6.7,39.8a6.23,6.23,0,0,0,5.1,7.2h0l63.6,10.7a6.23,6.23,0,0,0,7.2-5.1l6.7-39.8a6.23,6.23,0,0,0-5.1-7.2h0l-63.6-10.7a3.4,3.4,0,0,0-1-.1Z"/><rect class="cls-7" x="390.09" y="77.88" width="40.4" height="64.6" transform="translate(233.76 496.59) rotate(-80.48)"/><polygon class="cls-7" points="413.23 90.4 409.93 110 409.93 110 378.53 104.8 381.83 85.1 413.23 90.4"/><polygon class="cls-9" points="410.23 108 409.93 110 409.93 110 406.63 109.5 398.03 101.8 397.23 101.1 396.13 100.1 395.83 99.9 394.83 98.9 394.43 98.6 394.13 98.3 393.43 97.7 393.23 97.5 392.93 97.3 389.83 94.5 388.43 93.3 381.53 87.2 381.83 85.1 381.93 85.1 381.93 85.1 385.13 85.7 393.93 93.5 394.73 94.2 395.03 94.4 396.33 95.6 396.53 95.8 397.03 96.2 397.83 97 398.03 97.1 398.73 97.7 399.43 98.4 401.33 100 402.73 101.2 410.23 108"/><polygon class="cls-8" points="409.93 110 409.93 110 407.83 109.7 398.13 101.1 397.33 100.4 397.33 100.3 396.43 99.6 395.93 99.1 395.03 98.3 394.23 97.6 394.13 97.5 393.53 97 393.33 96.8 391.03 94.7 389.63 93.5 381.63 86.4 381.83 85.1 381.93 85.1 381.93 85.1 391.83 93.9 393.23 95.1 393.53 95.4 394.43 96.2 394.73 96.5 395.23 97 396.23 97.8 397.53 99 397.63 99.1 398.13 99.5 398.43 99.7 399.53 100.7 409.93 110"/><polygon class="cls-9" points="413.13 90.8 412.83 92.8 404.93 96.1 403.23 96.8 399.43 98.4 398.53 98.7 397.63 99.1 397.53 99.2 397.13 99.3 396.43 99.6 395.83 99.9 395.43 100 393.63 100.8 392.63 101.2 382.43 105.4 378.53 104.8 378.83 103.1 388.83 98.9 390.53 98.2 392.93 97.3 393.33 97.1 393.53 97 394.33 96.6 394.73 96.5 396.53 95.8 396.73 95.7 398.23 95.1 398.33 95 399.23 94.6 410.53 89.9 412.93 90.3 413.13 90.8"/><polygon class="cls-8" points="413.03 90.8 401.73 95.5 400.03 96.2 398.93 96.7 398.03 97.1 397.83 97.2 396.23 97.8 395.03 98.3 394.43 98.6 394.03 98.8 393.93 98.8 392.93 99.2 392.23 99.5 379.23 104.9 378.53 104.8 378.73 103.8 390.03 99.1 391.73 98.4 393.13 97.8 393.43 97.7 394.13 97.5 394.23 97.4 395.23 97 397.03 96.2 397.83 95.9 398.03 95.8 399.13 95.4 399.53 95.2 411.73 90.1 412.83 90.3 413.23 90.4 413.13 90.8 413.03 90.8"/><rect class="cls-6" x="393.14" y="81.37" width="5.5" height="31.8" transform="matrix(0.17, -0.99, 0.99, 0.17, 234.48, 471.62)"/><rect class="cls-8" x="394.12" y="81.46" width="3.5" height="31.8" transform="translate(234.38 471.67) rotate(-80.48)"/><rect class="cls-10" x="386" y="95.81" width="19.9" height="3.5" transform="translate(234.24 471.92) rotate(-80.48)"/><polygon class="cls-6" points="397.33 100.3 398.23 100.5 397.03 107.9 391.63 107 392.83 99.6 393.83 99.8 394.73 94.4 393.73 94.2 394.93 87.3 400.33 88.2 399.13 95.1 398.23 95 397.33 100.3"/><rect class="cls-8" x="385.99" y="95.8" width="19.9" height="3.5" transform="translate(234.24 471.9) rotate(-80.48)"/><g id="c"><path id="a" class="cls-6" d="M393.73,112.6l.5,3.1,3.1-.6-2.2,2.3,2.4,2-3.2-.2-.1,3.2-1.8-2.6-2.5,1.9,1-3-3.1-.8,3-1.1-1.3-2.9,2.8,1.6Z"/></g><line class="cls-1" x1="376.33" y1="98.1" x2="362.23" y2="186.1"/><path class="cls-2" d="M161.43,62.5a3.2,3.2,0,0,1-3.1-2.6l-7.2-39.7a3.08,3.08,0,0,1,2.5-3.6h0l63.3-11.5a1.27,1.27,0,0,0,.6-.1,3.2,3.2,0,0,1,3.1,2.6l7.2,39.7a3.08,3.08,0,0,1-2.5,3.6L162,62.4A1.27,1.27,0,0,1,161.43,62.5Z"/><path class="cls-3" d="M217.53,8.2l7.2,39.7-63.3,11.5-7.2-39.7,63.3-11.5m0-6.3a3.75,3.75,0,0,0-1.1.1l-63.3,11.5a6.06,6.06,0,0,0-4,2.6,6.56,6.56,0,0,0-1,4.7l7.2,39.7a6.16,6.16,0,0,0,6.2,5.1,4.1,4.1,0,0,0,1.1-.1L225.93,54a6.33,6.33,0,0,0,5.1-7.3h0L223.83,7a6.44,6.44,0,0,0-6.3-5.1Z"/><rect class="cls-15" x="157.33" y="13.6" width="64.3" height="40.3" transform="translate(-2.98 34.33) rotate(-10.27)"/><rect class="cls-6" x="173.54" y="13.6" width="32.1" height="40.3" transform="translate(-2.98 34.34) rotate(-10.27)"/><polygon class="cls-15" points="189.83 40.8 191.03 47.9 192.33 47.6 190.93 40.4 197.73 40.6 196.53 38.5 201.83 31.5 200.03 31.5 200.33 27 196.83 28.4 195.63 26.5 192.83 30.5 192.43 22.4 190.33 23.9 186.73 19.6 184.93 25 182.03 24 184.83 31.9 180.63 28.9 180.63 31.2 176.73 31.1 178.73 34.9 176.93 36 184.03 40.4 183.53 42.8 189.83 40.8"/><line class="cls-1" x1="220.53" y1="8.1" x2="235.93" y2="94.8"/><line class="cls-1" x1="80.53" y1="105" x2="92.93" y2="172.2"/><path class="cls-2" d="M14.33,133a3.21,3.21,0,0,1-3.1-2.5L3.13,90.3a3,3,0,0,1,.5-2.4,3,3,0,0,1,2-1.3l64.9-13.2c.2,0,.4-.1.6-.1a3.21,3.21,0,0,1,3.1,2.5l8.1,40.1a3.15,3.15,0,0,1-2.5,3.7l-64.9,13.2A.73.73,0,0,1,14.33,133Z"/><path class="cls-3" d="M71.13,76.5l8.1,40.1-64.9,13.2L6.13,89.7l65-13.2m.1-6.2a4.87,4.87,0,0,0-1.2.1L5,83.6A6.27,6.27,0,0,0,.13,91v.1l8.1,40.1a6.3,6.3,0,0,0,6.1,5,4.87,4.87,0,0,0,1.2-.1l65-13.2a6.27,6.27,0,0,0,4.9-7.4h0l-8.1-40.1a6.29,6.29,0,0,0-6.1-5.1Z"/><rect class="cls-16" x="8.34" y="95.39" width="66.3" height="3.2" transform="translate(-18.46 10.19) rotate(-11.47)"/><rect class="cls-16" x="7.15" y="89.28" width="66.3" height="3.2" transform="translate(-17.27 9.83) rotate(-11.47)"/><rect class="cls-16" x="5.85" y="83.09" width="66.3" height="3.2" transform="translate(-16.07 9.45) rotate(-11.47)"/><rect class="cls-16" x="9.64" y="101.58" width="66.3" height="3.2" transform="translate(-19.67 10.57) rotate(-11.47)"/><rect class="cls-16" x="10.95" y="107.77" width="66.3" height="3.2" transform="translate(-20.87 10.96) rotate(-11.47)"/><rect class="cls-16" x="12.15" y="113.98" width="66.3" height="3.2" transform="translate(-22.08 11.32) rotate(-11.47)"/><rect class="cls-16" x="13.34" y="120.09" width="66.3" height="3.2" transform="translate(-23.28 11.68) rotate(-11.47)"/><rect class="cls-6" x="7.73" y="92.29" width="66.3" height="3.2" transform="translate(-17.86 10.01) rotate(-11.47)"/><rect class="cls-6" x="6.55" y="86.18" width="66.3" height="3.2" transform="translate(-16.67 9.65) rotate(-11.47)"/><rect class="cls-6" x="9.04" y="98.48" width="66.3" height="3.2" transform="translate(-19.06 10.39) rotate(-11.47)"/><rect class="cls-6" x="10.25" y="104.69" width="66.3" height="3.2" transform="translate(-20.27 10.76) rotate(-11.47)"/><rect class="cls-6" x="11.55" y="110.88" width="66.3" height="3.2" transform="translate(-21.48 11.14) rotate(-11.47)"/><rect class="cls-6" x="12.75" y="117.09" width="66.3" height="3.2" transform="translate(-22.69 11.5) rotate(-11.47)"/><rect class="cls-7" x="7.85" y="87.19" width="24.8" height="19.1" transform="translate(-18.84 5.96) rotate(-11.47)"/><polygon class="cls-6" points="27.23 89.4 27.63 90.1 26.93 89.8 26.93 89.8 26.93 89.8 26.43 90.3 26.53 89.6 26.53 89.5 26.53 89.5 25.83 89.2 26.63 89.1 26.63 88.3 27.03 89 27.03 89 27.03 89 27.83 88.9 27.23 89.4 27.23 89.4"/><polygon class="cls-6" points="28.03 93.2 28.43 93.9 27.73 93.5 27.73 93.5 27.73 93.5 27.23 94.1 27.33 93.3 27.33 93.3 27.33 93.3 26.63 93 27.33 92.9 27.43 92.1 27.83 92.8 27.83 92.8 27.83 92.8 28.53 92.6 28.03 93.2 28.03 93.2"/><polygon class="cls-6" points="28.83 97 29.23 97.6 28.53 97.3 28.53 97.3 28.53 97.3 27.93 97.9 28.03 97.1 28.13 97.1 28.03 97.1 27.33 96.8 28.13 96.6 28.13 95.9 28.53 96.6 28.53 96.6 28.53 96.6 29.33 96.4 28.83 97 28.83 97"/><polygon class="cls-6" points="29.53 100.8 29.93 101.4 29.23 101.1 29.23 101.1 29.23 101.1 28.73 101.7 28.83 100.9 28.83 100.9 28.83 100.9 28.13 100.6 28.93 100.4 28.93 99.7 29.33 100.3 29.33 100.3 29.33 100.3 30.13 100.2 29.53 100.7 29.53 100.7 29.53 100.8"/><polygon class="cls-6" points="29.63 90.9 30.03 91.6 29.33 91.2 29.33 91.2 29.33 91.2 28.73 91.8 28.93 91 28.93 91 28.93 91 28.13 90.7 28.93 90.6 28.93 89.8 29.33 90.5 29.33 90.5 29.33 90.5 30.13 90.3 29.63 90.9 29.63 90.9"/><polygon class="cls-6" points="30.33 94.7 30.73 95.4 30.03 95 30.03 95 30.03 95 29.53 95.6 29.63 94.8 29.63 94.8 29.63 94.8 28.93 94.5 29.73 94.4 29.73 93.6 30.13 94.3 30.13 94.3 30.13 94.3 30.93 94.1 30.33 94.7 30.33 94.7"/><polygon class="cls-6" points="31.13 98.5 31.53 99.1 30.83 98.8 30.83 98.8 30.83 98.8 30.33 99.4 30.43 98.6 30.43 98.6 30.43 98.6 29.73 98.3 30.43 98.1 30.53 97.4 30.93 98.1 30.93 98.1 30.93 98.1 31.63 97.9 31.13 98.5 31.13 98.5"/><polygon class="cls-6" points="31.93 102.2 32.33 102.9 31.63 102.6 31.63 102.6 31.63 102.6 31.03 103.2 31.13 102.4 31.23 102.4 31.13 102.4 30.43 102.1 31.23 101.9 31.33 101.2 31.63 101.9 31.63 101.9 31.63 101.8 32.43 101.7 31.93 102.2 31.93 102.2"/><polygon class="cls-6" points="28.83 87.1 29.23 87.8 28.53 87.5 28.53 87.5 28.53 87.5 28.03 88.1 28.13 87.3 28.13 87.3 28.13 87.3 27.43 87 28.13 86.8 28.23 86.1 28.63 86.7 28.63 86.7 28.63 86.7 29.33 86.6 28.83 87.1 28.83 87.1"/><polygon class="cls-6" points="26.43 95.5 26.83 96.1 26.13 95.8 26.13 95.8 26.13 95.8 25.63 96.4 25.73 95.6 25.73 95.6 25.73 95.6 25.03 95.3 25.73 95.2 25.83 94.4 26.23 95.1 26.23 95.1 26.23 95.1 26.93 94.9 26.43 95.5 26.43 95.5"/><polygon class="cls-6" points="27.23 99.3 27.63 99.9 26.93 99.6 26.93 99.6 26.93 99.6 26.33 100.2 26.53 99.4 26.53 99.4 26.53 99.4 25.73 99.1 26.53 99 26.63 98.2 26.93 98.9 26.93 98.9 26.93 98.9 27.73 98.7 27.23 99.3 27.23 99.3"/><polygon class="cls-6" points="27.93 103 28.33 103.7 27.63 103.4 27.63 103.4 27.63 103.4 27.13 104 27.23 103.2 27.23 103.2 27.23 103.2 26.53 102.9 27.33 102.7 27.33 102 27.73 102.6 27.73 102.6 27.73 102.6 28.53 102.5 27.93 103 27.93 103"/><polygon class="cls-11" points="215.33 75.7 215.33 75.7 215.13 71.9 220.73 71.6 220.93 75.4 222.73 75.3 222.53 71.5 228.13 71.2 228.23 75 230.13 74.9 229.93 71.1 235.43 70.8 235.63 74.6 237.53 74.5 237.23 70.7 242.83 70.4 243.03 74.2 244.83 74.1 244.63 70.3 250.23 70 250.43 74.4 255.13 133.8 214.63 136 215.33 75.7"/><path class="cls-12" d="M224.53,85.2l-4,.2-.2-3.3a1.42,1.42,0,0,1,1.4-1.6h.9a1.42,1.42,0,0,1,1.6,1.4h0Z"/><path class="cls-12" d="M232,84.8l-4,.2-.2-3.3a1.42,1.42,0,0,1,1.4-1.6h.9a1.44,1.44,0,0,1,1.6,1.5h0Z"/><path class="cls-12" d="M239.43,84.4l-4,.2-.2-3.3a1.5,1.5,0,0,1,1.5-1.6h.9a1.44,1.44,0,0,1,1.6,1.5h0Z"/><path class="cls-12" d="M247,86l-4,.2-.3-5.4a1.58,1.58,0,0,1,1.5-1.7h.9a1.5,1.5,0,0,1,1.6,1.5Z"/><path class="cls-2" d="M413,69.3l-4.3-.3-60-3.6a3.12,3.12,0,0,1-2.9-3.3l.8-16.6v-.6l.6-12.6a1.27,1.27,0,0,1,.1-.6L348,16a3.16,3.16,0,0,1,3.1-3,3.55,3.55,0,0,1,1,.2l63.4,3.8a3,3,0,0,1,2.9,3.2v1.4l-.7,14.4v.5l-.5,12.6a.9.9,0,0,1-.1.5l-.7,16.3v.5a3.1,3.1,0,0,1-3.1,3Z"/><path class="cls-3" d="M351,16.1h0l.2.1,64.1,3.8v1h0l-.7,15.2h0L414,48.8h0l-.8,17.2h0v.2l-4.3-.3-60-3.5.8-17.2h0l.6-12.6h0l.7-16.5m.1-6.2a6.13,6.13,0,0,0-6.2,6l-.7,15.5c0,.3-.1.6-.1.8l-.6,12.6v.9l-.8,16.3a6.24,6.24,0,0,0,5.9,6.5l60,3.5,4.3.3h.4a6.13,6.13,0,0,0,6.2-6v-.6l.7-15.9c0-.2.1-.5.1-.7l.6-12.6v-.7l.6-14V20.2a6.33,6.33,0,0,0-5.8-6.4l-63.1-3.7a3.89,3.89,0,0,0-1.5-.2Z"/><polygon class="cls-7" points="415.33 20.1 413.23 66.1 413.23 66.1 349.03 62.3 351.03 16.2 415.33 20.1"/><polygon class="cls-9" points="413.43 61.3 413.23 66.1 413.23 66.1 406.53 65.7 387.43 50.4 385.53 48.9 383.33 47.1 382.53 46.5 380.23 44.6 379.43 43.9 378.73 43.4 377.23 42.2 376.73 41.8 376.03 41.3 369.33 35.8 366.23 33.4 350.83 21.1 351.03 16.2 351.13 16.2 351.23 16.3 357.73 16.6 377.23 32.2 379.13 33.8 379.63 34.2 382.73 36.6 382.93 36.9 384.13 37.8 386.03 39.3 386.33 39.5 387.93 40.8 389.43 42.1 393.63 45.4 396.73 47.9 413.43 61.3"/><polygon class="cls-8" points="413.23 66 413.23 66.1 408.93 65.9 387.53 48.7 385.73 47.2 385.63 47.1 383.83 45.7 382.73 44.8 380.63 43.1 378.73 41.6 378.53 41.4 377.33 40.5 376.83 40.1 371.73 36 368.63 33.5 350.93 19.3 351.13 16.1 351.13 16.2 351.23 16.3 373.13 33.8 376.13 36.2 377.03 36.9 378.93 38.4 379.63 39 380.83 40 382.93 41.7 385.73 43.9 386.13 44.2 387.13 45 387.73 45.5 390.13 47.5 413.23 66"/><polygon class="cls-9" points="415.23 21 415.03 25.8 399.93 35.4 396.73 37.4 389.43 42.1 387.83 43.1 386.13 44.2 385.73 44.4 385.03 44.9 383.83 45.7 382.53 46.5 381.73 47 378.43 49.1 376.43 50.4 356.93 62.8 349.03 62.3 349.13 58.4 368.33 46.2 371.63 44.1 376.03 41.3 376.83 40.8 377.33 40.5 378.83 39.5 379.63 39 382.93 36.9 383.33 36.7 386.23 34.8 386.53 34.6 388.23 33.5 409.93 19.7 414.83 20 415.23 21"/><polygon class="cls-8" points="415.13 21.2 393.43 35 390.23 37.1 388.03 38.4 386.33 39.5 385.93 39.8 382.93 41.7 380.63 43.1 379.43 43.9 378.63 44.4 378.53 44.5 376.63 45.7 375.23 46.6 350.43 62.4 349.03 62.3 349.13 60.2 370.73 46.3 374.03 44.3 376.73 42.5 377.23 42.2 378.53 41.4 378.73 41.2 380.83 40 384.13 37.8 385.73 36.8 386.13 36.6 388.13 35.3 388.93 34.7 412.33 19.9 414.53 20 415.33 20.1 415.33 21.1 415.13 21.2"/><polygon class="cls-6" points="414.03 48.9 349.73 45.1 350.23 32.4 414.63 36.2 414.03 48.9"/><polygon class="cls-8" points="414.13 46.6 349.83 42.8 350.23 34.7 414.53 38.5 414.13 46.6"/><polygon class="cls-10" points="386.93 18.4 384.83 64.4 377.73 64 379.83 17.9 386.93 18.4"/><polygon class="cls-6" points="385.63 47.2 387.63 47.3 386.83 64.6 375.73 63.9 376.53 46.7 378.53 46.8 379.13 34.1 377.13 34 377.83 17.8 388.93 18.5 388.13 34.7 386.23 34.6 385.63 47.2"/><polygon class="cls-8" points="386.93 18.4 384.83 64.4 377.73 64 379.73 17.9 386.93 18.4"/><line class="cls-1" x1="347.03" y1="40.5" x2="342.53" y2="129.9"/><polygon class="cls-13" points="317.63 103.3 317.73 106.2 316.33 106 316.13 103 311.63 102.3 311.83 105.2 310.33 105 310.13 102 305.73 101.3 305.83 104.2 304.33 104 304.23 101.1 299.73 100.3 299.93 103.3 298.43 103 298.23 100.1 293.83 99.4 293.93 102.3 292.53 102 292.33 99.1 287.93 98.4 288.03 101.3 286.63 101.1 286.43 98.1 282.03 97.4 282.13 100.3 280.73 100.1 280.53 97.2 276.13 96.5 276.23 99.4 274.83 99.1 274.63 96.2 270.23 95.5 270.33 98.4 268.93 98.2 268.73 95.2 264.33 94.5 264.53 97.4 263.03 97.2 262.93 94.3 258.53 93.6 258.63 96.5 257.23 96.2 257.03 93.3 252.63 92.6 252.83 95.5 251.33 95.3 251.23 92.4 246.83 91.6 246.93 94.5 245.53 94.3 245.33 91.4 240.93 90.7 241.13 93.6 239.73 93.4 239.53 90.5 235.13 89.7 235.33 92.6 235.33 93.2 237.13 125.7 324.13 140.1 322.33 107.5 322.23 106.9 322.13 104 317.63 103.3"/><polygon class="cls-11" points="313.13 155.7 313.33 86.9 313.13 81.7 319.63 81.4 319.93 85.9 322.03 85.8 321.83 81.2 328.43 80.9 328.63 85.4 330.83 85.3 330.63 80.8 337.13 80.4 337.43 85 339.53 84.8 339.33 80.3 345.93 79.9 346.13 84.5 348.33 84.3 348.03 79.8 354.63 79.5 354.93 84.3 361.33 153.1 313.13 155.7"/><path class="cls-12" d="M345.33,96.3l4.8-.3-.2-4a2,2,0,0,0-2-1.8h0l-1.1.1a2,2,0,0,0-1.8,2h0Z"/><path class="cls-12" d="M336.43,96.8l4.8-.3-.2-4a2,2,0,0,0-2-1.8h0l-1.1.1a2,2,0,0,0-1.8,2h0Z"/><path class="cls-12" d="M327.63,97.3l4.8-.3-.2-4a2,2,0,0,0-1.9-1.8h0l-1.1.1a2,2,0,0,0-1.8,1.9h0Z"/><path class="cls-12" d="M318.83,100.2l4.8-.3-.4-6.4a2,2,0,0,0-2-1.8h0l-1.1.1a2,2,0,0,0-1.8,2h0Z"/><ellipse class="cls-17" cx="64.53" cy="187.6" rx="44.3" ry="30.3" transform="translate(-10.18 3.82) rotate(-3.14)"/><polygon class="cls-13" points="313.23 103.6 305.93 105.3 306.23 110.3 303.03 111 302.83 106 293.23 108.2 293.53 113.2 290.33 113.9 290.13 108.9 280.53 111.1 280.83 116.1 277.63 116.8 277.43 111.8 267.83 114 268.03 119 264.93 119.8 264.63 114.7 255.03 116.9 255.33 121.9 252.13 122.7 251.83 117.6 242.23 119.9 242.53 124.9 239.33 125.6 239.03 120.6 229.43 122.8 229.63 127.8 226.53 128.5 226.23 123.5 216.53 125.7 216.83 130.7 213.63 131.5 213.43 126.4 203.73 128.6 203.93 133.7 200.83 134.4 200.53 129.4 190.83 131.6 191.03 136.6 187.93 137.3 187.63 132.3 177.83 134.5 178.13 139.6 174.93 140.3 174.63 135.2 164.93 137.5 165.23 142.5 162.03 143.3 161.73 138.2 151.93 140.4 154.33 184.6 315.63 147.6 313.23 103.6"/><path class="cls-14" d="M377.93,217.3c-18.3,1-34.5-5.6-42.6-16.1-8,8.8-21.4,15-36.9,15.9-19,1.1-35.7-6.1-43.5-17.4a61.73,61.73,0,0,1-22,5.3c-25.7,1.5-47.3-12.1-48.2-30.4s19.1-34.2,44.8-35.7a58.63,58.63,0,0,1,29.4,5.6c4.5-9.5,16.8-16.7,31.5-17.6,14.2-.8,26.8,4.6,32.6,13,5.6.9,15.4,4.9,15.4,4.9s.2-6.7,24.8-7.3c19.2-1.1,40.7,5.4,41.4,20.2,12.1,6,17.3,14.1,17.9,24.2C423.33,200,403.43,215.9,377.93,217.3Z"/><polygon class="cls-11" points="304.63 223.3 314.23 155.4 314.73 147.1 326.53 147.8 326.03 155.9 329.93 156.1 330.33 148 342.13 148.6 341.63 156.7 345.53 156.9 345.93 148.8 357.73 149.5 357.23 157.6 361.13 157.8 361.63 149.7 373.33 150.3 372.93 158.4 376.73 158.6 377.23 150.6 388.93 151.2 388.43 161 390.53 228 304.63 223.3"/><path class="cls-12" d="M331.43,177.2l-8.6-.5.4-7.1a3.34,3.34,0,0,1,3.5-3.1l1.9.1a3.34,3.34,0,0,1,3.1,3.5h0Z"/><path class="cls-12" d="M347.23,178.1l-8.6-.5.4-7.1a3.34,3.34,0,0,1,3.5-3.1h0l1.9.1a3.34,3.34,0,0,1,3.1,3.5Z"/><path class="cls-12" d="M363,179l-8.6-.5.4-7.1a3.34,3.34,0,0,1,3.5-3.1h0l1.9.1a3.34,3.34,0,0,1,3.1,3.5Z"/><path class="cls-12" d="M378.83,181.2l-8.6-.5.5-9.1c.1-1.5,1.6-2.6,3.5-2.5l1.9.1a3.18,3.18,0,0,1,3.2,2.8Z"/><polygon class="cls-13" points="334.33 221.7 334.43 222.4 148.23 202 145.43 162.5 159.83 164.1 160.23 170.6 164.93 171.1 164.53 164.6 178.83 166.1 179.33 172.7 184.03 173.2 183.63 166.6 198.03 168.2 198.53 174.8 203.23 175.3 202.73 168.7 205.53 169 205.43 168.3 219.83 169.9 220.23 176.5 222.33 176.7 221.93 170.8 224.53 171.1 224.53 170.4 238.93 172 239.33 178.6 241.53 178.8 241.13 172.9 243.63 173.2 243.63 172.5 258.03 174 258.53 180.6 260.73 180.9 260.33 175 262.83 175.2 262.73 174.6 277.23 176.1 277.63 182.7 280.03 183 279.63 177.1 281.93 177.3 281.93 176.6 296.33 178.2 296.83 184.8 299.33 185.1 298.93 179.2 301.13 179.4 301.13 178.7 315.53 180.3 316.03 186.9 318.73 187.2 318.33 181.3 320.33 181.5 320.33 180.8 334.83 182.4 335.33 189 340.13 189.5 339.63 182.9 354.13 184.5 354.63 191.1 359.43 191.6 358.93 185 373.53 186.6 374.03 193.2 378.73 193.8 378.33 187.1 391.63 188.6 394.43 228.3 334.33 221.7"/><polygon class="cls-11" points="91.83 204.8 93.93 136.3 93.53 128 105.33 127.4 105.73 135.4 109.63 135.2 109.13 127.1 120.93 126.5 121.33 134.6 125.23 134.4 124.73 126.3 136.53 125.6 136.93 133.7 140.83 133.5 140.33 125.4 152.13 124.8 152.53 132.9 156.43 132.6 155.93 124.6 167.73 123.9 168.33 133.7 177.73 200.1 91.83 204.8"/><path class="cls-12" d="M113.43,156.1l-8.6.5-.4-7.1a3.34,3.34,0,0,1,3.1-3.5h0l1.9-.1a3.34,3.34,0,0,1,3.5,3.1Z"/><path class="cls-12" d="M129.23,155.2l-8.6.5-.4-7.1a3.34,3.34,0,0,1,3.1-3.5l1.9-.1a3.34,3.34,0,0,1,3.5,3.1Z"/><path class="cls-12" d="M145,154.4l-8.6.5-.4-7.1a3.34,3.34,0,0,1,3.1-3.5l1.9-.1a3.34,3.34,0,0,1,3.5,3.1h0Z"/><path class="cls-12" d="M160.93,154.6l-8.6.5-.5-8.9c-.1-1.4,1.3-2.7,3.2-2.8l1.9-.1c1.8-.1,3.4,1,3.4,2.4Z"/><path class="cls-14" d="M405,228.2c.8,16.9-25.1,32.2-57.7,34.3-15.5,1-66.4,5.5-112.2,2.2-57,3-158.9,3.7-160.8-38.7-1-22.1,30.7-42.1,70.9-44.7,17.7-1.1,34.1,1.3,47.1,6.3a126.62,126.62,0,0,1,32.3-6.3c31.7-2,59.2,7.4,69.9,22.3a65.69,65.69,0,0,1,16.1,5.7,102.09,102.09,0,0,1,33.9-7.8C377.13,199.4,404.23,211.4,405,228.2Z"/></g></g></svg>