<?xml version="1.0" encoding="iso-8859-1"?>
<!-- Generator: Adobe Illustrator 19.0.0, SVG Export Plug-In . SVG Version: 6.00 Build 0)  -->
<svg version="1.1" id="Layer_1" xmlns="http://www.w3.org/2000/svg" xmlns:xlink="http://www.w3.org/1999/xlink" x="0px" y="0px"
	 viewBox="0 0 512 512" style="enable-background:new 0 0 512 512;" xml:space="preserve">
<g>
	<path style="fill:#FF4B4B;" d="M280.913,192.579l-74.759-24.92c-0.976-0.325-1.886-0.82-2.689-1.463l-40.804-32.642
		c-1.601-1.28-2.7-3.086-3.101-5.096l-6.341-31.703c-1.028-5.14-6.328-8.216-11.301-6.559L75.731,112.26
		c-2.827,0.942-4.976,3.264-5.699,6.154l-6.317,25.271c-0.86,3.437-3.714,6.012-7.222,6.513l-49.011,7.001
		C3.189,157.813,0,161.49,0,165.827v17.082c0,1.353,0.315,2.688,0.92,3.898l15.958,31.917c0.605,1.21,0.92,2.544,0.92,3.898v38.484
		c0,2.513,1.085,4.903,2.976,6.559l65.752,57.534c1.588,1.39,3.628,2.156,5.739,2.156h38.583c1.721,0,3.403,0.509,4.834,1.464
		l21.498,14.332c1.923,1.283,4.277,1.748,6.543,1.295l30.533-6.107c5.393-1.079,10.424,3.046,10.424,8.545v21.357
		c0,2.312-0.918,4.527-2.553,6.163l-0.831,0.831c-3.14,3.14-3.417,8.138-0.643,11.607l26.685,33.356
		c2.398,2.998,6.476,4.074,10.042,2.647l34.859-13.944c2.312-0.924,4.908-0.816,7.134,0.297l46.216,23.108
		c2.329,1.165,5.057,1.227,7.436,0.169l73.477-32.656c1.847-0.821,3.352-2.258,4.255-4.066l32.498-64.998
		c1.083-2.167,1.216-4.689,0.365-6.957l-24.028-64.079c-0.851-2.269-0.719-4.79,0.365-6.957l4.391-8.781
		c1.677-3.355,1.02-7.407-1.632-10.059l-15.151-15.151c-3.75-3.75-3.309-9.951,0.933-13.134l21.511-16.134
		c3.47-2.602,8.324-2.257,11.391,0.81l6.292,6.292c3.403,3.403,8.921,3.403,12.324,0l42.791-42.791
		c2.652-2.652,3.309-6.704,1.632-10.059l-4.339-8.68c-1.114-2.226-1.221-4.822-0.297-7.134l11.564-28.911
		c2.289-5.724-1.926-11.951-8.091-11.951h-19.115c-2.312,0-4.527-0.918-6.163-2.553l-38.454-38.454
		c-2.165-2.165-5.306-3.035-8.276-2.293l-26.616,6.654c-2.642,0.661-4.823,2.518-5.897,5.021l-21.263,49.616
		c-2.008,4.686,0.417,10.088,5.254,11.7l0,0c7.019,2.339,8.114,11.811,1.811,15.689l-96.324,59.276
		C286.041,193.085,283.359,193.394,280.913,192.579z"/>
	<path style="fill:#FF4B4B;" d="M302.57,465.238v-10.054c0-1.792,1.453-3.244,3.244-3.244h20.21c1.792,0,3.244,1.453,3.244,3.244
		v3.317c0,1.396-0.893,2.636-2.218,3.078l-20.21,6.737C304.739,469.015,302.57,467.451,302.57,465.238z"/>
</g>
<g>
	<path style="fill:#FFCF65;" d="M273.104,255.545l9.389,28.152l29.675,0.23c3.842,0.03,5.435,4.932,2.345,7.215l-23.873,17.629
		l8.951,28.294c1.159,3.663-3.012,6.693-6.138,4.46l-24.143-17.256l-24.143,17.256c-3.126,2.234-7.296-0.796-6.138-4.46
		l8.951-28.294l-23.873-17.629c-3.09-2.283-1.497-7.185,2.345-7.215l29.675-0.23l9.389-28.152
		C266.733,251.9,271.889,251.9,273.104,255.545z"/>
	<path style="fill:#FFCF65;" d="M380.864,262.483l6.732,9.181l10.866-3.397c1.407-0.439,2.564,1.164,1.703,2.36l-6.651,9.24
		l6.589,9.284c0.853,1.202-0.315,2.798-1.719,2.348l-10.842-3.471l-6.793,9.135c-0.88,1.182-2.759,0.565-2.765-0.909l-0.05-11.384
		l-10.788-3.638c-1.397-0.471-1.39-2.448,0.01-2.91l10.811-3.565l0.127-11.384C378.11,261.899,379.993,261.293,380.864,262.483z"/>
	<path style="fill:#FFCF65;" d="M339.875,235.117l11.317,1.23l4.828-10.31c0.625-1.335,2.59-1.106,2.891,0.337l2.327,11.144
		l11.297,1.406c1.463,0.182,1.852,2.121,0.573,2.853l-9.879,5.657l2.155,11.178c0.279,1.447-1.445,2.417-2.536,1.426l-8.433-7.648
		l-9.966,5.503c-1.29,0.713-2.745-0.627-2.14-1.972l4.668-10.383l-8.314-7.778C337.584,236.754,338.41,234.958,339.875,235.117z"/>
	<path style="fill:#FFCF65;" d="M357.766,345.444l-6.732,9.181l-10.866-3.397c-1.407-0.439-2.564,1.164-1.703,2.36l6.651,9.24
		l-6.589,9.284c-0.853,1.202,0.315,2.798,1.719,2.348l10.842-3.471l6.793,9.135c0.88,1.182,2.759,0.565,2.765-0.909l0.05-11.384
		l10.788-3.637c1.397-0.471,1.391-2.448-0.01-2.91l-10.811-3.565l-0.127-11.383C360.521,344.862,358.638,344.256,357.766,345.444z"
		/>
	<path style="fill:#FFCF65;" d="M398.756,319.728l-11.317,1.23l-4.828-10.31c-0.625-1.335-2.59-1.106-2.891,0.337l-2.327,11.144
		l-11.297,1.406c-1.463,0.182-1.852,2.121-0.573,2.853l9.879,5.658l-2.155,11.178c-0.279,1.447,1.445,2.417,2.536,1.426l8.433-7.648
		l9.966,5.503c1.29,0.713,2.745-0.627,2.14-1.972l-4.668-10.383l8.314-7.778C401.046,321.367,400.221,319.569,398.756,319.728z"/>
</g>
<g>
</g>
<g>
</g>
<g>
</g>
<g>
</g>
<g>
</g>
<g>
</g>
<g>
</g>
<g>
</g>
<g>
</g>
<g>
</g>
<g>
</g>
<g>
</g>
<g>
</g>
<g>
</g>
<g>
</g>
</svg>
